<?xml version="1.0" encoding="UTF-8" standalone="no"?>
<svg
   xmlns:dc="http://purl.org/dc/elements/1.1/"
   xmlns:cc="http://creativecommons.org/ns#"
   xmlns:rdf="http://www.w3.org/1999/02/22-rdf-syntax-ns#"
   xmlns:svg="http://www.w3.org/2000/svg"
   xmlns="http://www.w3.org/2000/svg"
   xmlns:sodipodi="http://sodipodi.sourceforge.net/DTD/sodipodi-0.dtd"
   xmlns:inkscape="http://www.inkscape.org/namespaces/inkscape"
   width="210mm"
   height="297mm"
   viewBox="0 0 210 297"
   version="1.1"
   id="svg8"
   inkscape:version="1.0.1 (3bc2e813f5, 2020-09-07)"
   sodipodi:docname="canasta.svg">
  <defs
     id="defs2" />
  <sodipodi:namedview
     id="base"
     pagecolor="#ffffff"
     bordercolor="#666666"
     borderopacity="1.0"
     inkscape:pageopacity="0.0"
     inkscape:pageshadow="2"
     inkscape:zoom="0.42310649"
     inkscape:cx="338.67601"
     inkscape:cy="407.57444"
     inkscape:document-units="mm"
     inkscape:current-layer="layer3"
     inkscape:document-rotation="0"
     showgrid="false"
     inkscape:window-width="1366"
     inkscape:window-height="745"
     inkscape:window-x="-8"
     inkscape:window-y="-8"
     inkscape:window-maximized="1" />
  <metadata
     id="metadata5">
    <rdf:RDF>
      <cc:Work
         rdf:about="">
        <dc:format>image/svg+xml</dc:format>
        <dc:type
           rdf:resource="http://purl.org/dc/dcmitype/StillImage" />
        <dc:title />
      </cc:Work>
    </rdf:RDF>
  </metadata>
  <g
     inkscape:groupmode="layer"
     id="layer3"
     inkscape:label="Capas 3"
     style="display:inline">
    <path
       style="fill:#f2c464;fill-opacity:1;stroke:#000000;stroke-width:0.264583px;stroke-linecap:butt;stroke-linejoin:miter;stroke-opacity:1"
       d="m 41.471548,127.75595 c 0,0 0.933601,7.17399 1.277559,9.67997 0.343958,2.50598 1.670653,9.28688 1.670653,9.28688 0,0 1.965479,7.46881 2.309437,8.7955 0.343958,1.3267 3.144761,9.72911 3.439583,10.5153 0.29482,0.78619 2.112886,4.76628 2.407709,5.50333 0.294819,0.73706 2.99735,4.66801 5.110236,6.43694 2.112888,1.76893 4.913691,4.07836 8.10759,5.0611 3.193899,0.98274 9.286875,2.01461 12.824732,2.35857 3.537858,0.34396 8.795504,0.63878 11.596309,0.63878 2.800803,0 9.532559,0.0491 9.925654,0.0491 0.3931,0 8.15673,-0.0983 8.15673,-0.0983 h 11.25235 c 0,0 8.99205,-0.0983 9.72911,-0.0983 0.73705,0 5.35592,-0.34396 8.05845,-0.73705 2.70253,-0.3931 9.53256,-1.96548 12.3825,-3.73441 2.84994,-1.76893 6.04384,-4.71714 7.12485,-6.14211 1.08101,-1.42497 4.42232,-7.3214 5.01196,-8.99206 0.58965,-1.67065 2.2603,-6.68262 3.04649,-9.28687 0.78619,-2.60426 2.55512,-9.5817 2.75167,-10.76098 0.19654,-1.17929 1.57238,-8.79551 1.96547,-11.00667 0.3931,-2.21116 0.88447,-7.41967 0.88447,-7.41967 l 0.0236,-0.32554 c 0,0 1.26625,-1.13628 1.59793,-1.62765 0.33167,-0.49137 0.82304,-1.49868 0.89674,-1.78122 0.0737,-0.28253 0.27026,-2.00232 0.24569,-2.34628 -0.0246,-0.34396 0,-0.77391 -0.0737,-1.11787 -0.0737,-0.34396 -1.83277,-3.48101 -3.29206,-3.44626 -1.45929,0.0347 -10.45826,0.45168 -10.45826,0.45168 l -12.92515,0.59067 -13.68955,0.48643 -13.51582,0.41694 -17.54624,0.0347 -13.515823,-0.20847 -15.739501,-0.62542 -19.630948,-0.59066 -10.076061,-0.62541 c 0,0 -3.891444,1.00761 -3.752464,3.37027 0.138981,2.36266 0.347451,3.37027 1.077095,4.8643 0.729647,1.49404 1.34103,2.4306 1.34103,2.4306 z"
       id="path1068" />
  </g>
  <g
     inkscape:groupmode="layer"
     id="layer2"
     inkscape:label="Capas 2"
     style="display:inline">
    <path
       style="fill:#e99734;fill-opacity:1;stroke:#000000;stroke-width:0.264583px;stroke-linecap:butt;stroke-linejoin:miter;stroke-opacity:1"
       d="m 48.10503,134.19289 c 0,0 0.780107,-0.6513 2.408269,-0.51332 0.161131,0.0137 0.325429,0.0112 0.490808,0.0219 1.523244,0.0983 3.193899,0.14741 4.225774,0.14741 1.031875,0 3.783542,-0.24569 4.225774,-0.0491 0.44223,0.19655 1.867202,1.22842 0.343958,1.8672 -1.523245,0.63878 -4.422322,0.58965 -5.945565,0.63878 -1.523246,0.0491 -4.913691,-0.5405 -4.913691,-0.5405 0,0 -1.670654,-0.0983 -0.835327,-1.57238 z"
       id="path848"
       sodipodi:nodetypes="cssscscccc" />
    <path
       style="fill:#e99734;fill-opacity:1;stroke:#000000;stroke-width:0.264583px;stroke-linecap:butt;stroke-linejoin:miter;stroke-opacity:1"
       d="m 45.554673,140.38171 c 0,0 0.780107,-0.6513 2.408269,-0.51332 0.161131,0.0137 0.325429,0.0112 0.490808,0.0219 1.523244,0.0983 3.193899,0.14741 4.225774,0.14741 1.031875,0 1.038685,0.13651 1.480917,0.3331 0.44223,0.19655 0.332469,0.7524 -0.177218,1.45025 -0.476726,0.65273 -1.156289,0.6244 -2.679532,0.67353 -1.523246,0.0491 -4.913691,-0.5405 -4.913691,-0.5405 0,0 -1.670654,-0.0983 -0.835327,-1.57237 z"
       id="path848-0"
       sodipodi:nodetypes="cssscscccc" />
    <path
       style="fill:#e99734;fill-opacity:1;stroke:#000000;stroke-width:0.264583px;stroke-linecap:butt;stroke-linejoin:miter;stroke-opacity:1"
       d="m 49.32223,149.55011 c 0,0 0.745362,-0.92927 3.207405,-0.61756 0.160432,0.0203 0.325429,0.0112 0.490808,0.0219 1.523244,0.0983 3.193899,0.14741 4.225774,0.14741 1.031875,0 1.151351,-0.0313 1.593583,0.16534 0.44223,0.19655 0.887367,0.58885 0.37768,1.2867 -0.476726,0.65273 -3.039929,0.39981 -4.563172,0.44892 -1.523246,0.0491 -3.87134,-0.0541 -3.87134,-0.0541 0,0 -2.296065,0.0754 -1.460738,-1.39864 z"
       id="path848-0-8"
       sodipodi:nodetypes="cssscscccc" />
    <path
       style="fill:#e99734;fill-opacity:1;stroke:#000000;stroke-width:0.264583px;stroke-linecap:butt;stroke-linejoin:miter;stroke-opacity:1"
       d="m 57.22451,141.29797 c 0,0 0.745362,-0.92927 3.207405,-0.61756 0.160432,0.0203 0.32543,0.0112 0.490808,0.0219 1.523244,0.0983 3.292174,-0.14741 4.324049,-0.14741 1.031875,0 2.379774,-0.12957 2.822006,0.0671 0,0 1.771831,0.19575 1.16387,1.58152 -0.324732,0.74018 -5.152817,0.49808 -6.67606,0.54719 -1.523245,0.0491 -3.87134,-0.0541 -3.87134,-0.0541 0,0 -2.296065,0.0754 -1.460738,-1.39864 z"
       id="path848-0-8-2"
       sodipodi:nodetypes="cssscscccc" />
    <path
       style="fill:#e99734;fill-opacity:1;stroke:#000000;stroke-width:0.264583px;stroke-linecap:butt;stroke-linejoin:miter;stroke-opacity:1"
       d="m 66.432272,134.33163 c 0,0 0.745362,-0.92927 3.207405,-0.61756 0.160432,0.0203 0.32543,0.0112 0.490808,0.0219 1.523244,0.0983 3.292174,-0.14741 4.324049,-0.14741 1.031875,0 2.822006,0.0671 2.822006,0.0671 0,0 2.115793,0.58885 1.507828,1.97462 -0.146927,0.3349 -0.169923,0.77051 -1.437437,0.82119 -1.533891,0.0613 -4.748539,-0.69399 -5.582581,-0.6671 -1.523245,0.0491 -3.87134,-0.0541 -3.87134,-0.0541 0,0 -2.296065,0.0754 -1.460738,-1.39864 z"
       id="path848-0-8-2-5"
       sodipodi:nodetypes="cssscssccc" />
    <path
       style="fill:#e99734;fill-opacity:1;stroke:#000000;stroke-width:0.264583px;stroke-linecap:butt;stroke-linejoin:miter;stroke-opacity:1"
       d="m 84.841914,135.04978 c 0,0 0.597951,-1.07668 3.109131,-0.81411 0.160834,0.0168 0.423704,-0.0379 0.589082,-0.0272 1.523244,0.0983 3.308818,0.0372 4.324049,-0.14741 1.081012,-0.19655 4.001292,-0.326 4.001292,-0.326 0,0 2.754572,0.29403 2.146607,1.6798 -0.146927,0.3349 -2.086262,0.6231 -3.353776,0.67378 -1.533891,0.0613 -4.650265,0.14134 -5.484307,0.16823 -1.523245,0.0491 -3.87134,-0.0541 -3.87134,-0.0541 0,0 -2.296065,0.32108 -1.460738,-1.15296 z"
       id="path848-0-8-2-5-0"
       sodipodi:nodetypes="cssscssccc" />
    <path
       style="fill:#e99734;fill-opacity:1;stroke:#000000;stroke-width:0.265;stroke-linecap:butt;stroke-linejoin:miter;stroke-miterlimit:4;stroke-dasharray:none;stroke-opacity:1"
       d="m 102.39929,134.64505 c 0,0 0.0593,-0.76397 1.21146,-0.81411 0.6269,-0.066 1.24207,-0.0623 2.36608,0.0686 2.23668,-0.12837 3.1285,-0.0822 3.22939,1.04109 -0.59238,1.11597 -2.02526,0.71456 -2.59236,0.74327 -0.60004,0.0304 -1.81196,0.14134 -2.13694,0.16823 -0.59353,0.0491 0,0 0,0 0,0 -2.40311,0.26698 -2.07763,-1.20706 z"
       id="path848-0-8-2-5-0-7"
       sodipodi:nodetypes="ccccscccc" />
    <path
       style="fill:#e99734;fill-opacity:1;stroke:#000000;stroke-width:0.264583px;stroke-linecap:butt;stroke-linejoin:miter;stroke-opacity:1"
       d="m 38.867291,120.28714 c 0,0 1.375833,3.68527 5.011965,4.1275 3.636129,0.44223 9.139462,1.03188 9.139462,1.03188 0,0 7.714496,0.24568 10.564437,0.49137 2.849938,0.24568 13.217827,0.14741 13.217827,0.14741 l 15.674673,0.0983 c 0,0 16.411725,0.0983 17.640145,0.0491 1.22842,-0.0491 17.78756,-0.0983 18.96685,-0.0983 1.17928,0 13.8566,0 14.74107,-0.0491 0.88446,-0.0491 10.81012,-0.34396 12.18595,-0.3931 1.37583,-0.0491 9.09033,-0.73705 10.36789,-0.9336 1.27756,-0.19655 3.53785,-0.88446 4.61887,-1.76893 1.08101,-0.88446 1.81806,-2.55512 1.8672,-2.8008 0.0491,-0.24569 0.73705,1.57238 0.44223,3.14476 -0.29482,1.57238 -1.42497,3.24304 -2.45684,3.98009 -1.03188,0.73705 -3.48872,1.22842 -4.56974,1.42497 -1.08101,0.19655 -0.9336,0.0983 -0.9336,0.0983 l -5.15937,0.63878 -8.10759,0.3931 -9.48342,0.24568 -16.36259,0.24569 -22.06247,-0.0983 H 88.642975 l -16.952233,-0.0983 c 0,0 -14.790208,-0.3931 -15.428986,-0.3931 -0.638781,0 -8.795507,-0.68791 -9.434287,-0.73705 -0.638779,-0.0491 -4.766279,-0.68791 -5.798154,-1.71979 -1.031875,-1.03187 -2.555118,-2.75167 -2.604256,-4.17664 -0.04914,-1.42497 0.442232,-2.84994 0.442232,-2.84994 z"
       id="path987" />
    <path
       style="fill:#e99734;fill-opacity:1;stroke:#000000;stroke-width:0.264583px;stroke-linecap:round;stroke-linejoin:round;stroke-opacity:1"
       d="m 71.297648,179.05488 c 0,0 1.572382,-0.3931 3.439584,-0.49137 1.867201,-0.0983 3.439583,-0.0491 3.439583,-0.0491 0,0 3.832677,-0.0491 4.373184,0.0983 0.540507,0.14741 2.358572,0.49137 2.309434,1.22842 -0.04914,0.73705 -0.196548,1.42497 -1.572382,1.57238 -1.375833,0.14741 -6.436934,-0.34396 -8.255,-0.73705 -1.818063,-0.3931 -3.734403,-1.62152 -3.734403,-1.62152 z"
       id="path989" />
    <path
       style="fill:#e99734;fill-opacity:1;stroke:#000000;stroke-width:0.264583px;stroke-linecap:butt;stroke-linejoin:miter;stroke-opacity:1"
       d="m 94.637679,179.15315 c 0,0 2.014611,-0.34398 3.685267,-0.39309 1.670654,-0.0491 3.734404,0.24568 3.881814,0.73705 0.14741,0.49137 0.58964,1.42497 -0.49137,1.67066 -1.08101,0.24568 -3.292169,0.49137 -4.815415,0.29482 -1.523244,-0.19655 -3.292171,-0.49137 -3.488719,-0.9336 -0.196549,-0.44224 0.78619,-1.37584 1.228423,-1.37584 z"
       id="path991"
       sodipodi:nodetypes="csssssc" />
    <path
       style="fill:#e99734;fill-opacity:1;stroke:#000000;stroke-width:0.264583px;stroke-linecap:butt;stroke-linejoin:miter;stroke-opacity:1"
       d="m 109.82098,179.25143 c 0,0 0.83533,-0.34396 1.57238,-0.3931 0.73706,-0.0491 1.81807,-0.0491 2.11289,-0.0491 0.29482,0 2.2603,0.14741 2.65339,0.14741 0.3931,0 2.2603,0.34395 2.30944,0.78619 0.0491,0.44223 0,0.9336 -0.78619,1.17928 -0.78619,0.24569 -3.29218,0.34396 -3.29218,0.34396 0,0 -2.30943,0.0491 -2.70253,0.0983 -0.39309,0.0491 -1.67065,-0.0983 -1.91633,-0.44223 -0.24569,-0.34396 -0.49138,-0.88446 0.0491,-1.67065 z"
       id="path993" />
    <path
       style="fill:#e99734;fill-opacity:1;stroke:#000000;stroke-width:0.264583px;stroke-linecap:butt;stroke-linejoin:miter;stroke-opacity:1"
       d="m 128.97358,178.62424 c 0,0 3.96094,0.0348 6.42783,-0.0695 2.4669,-0.10423 3.99568,0.0347 4.69058,0.17373 0.69491,0.13898 1.56353,0.3127 0.93812,0.72964 -0.62541,0.41694 -1.80674,0.59067 -2.25843,0.72965 -0.45168,0.13898 -1.84149,0.3127 -3.02282,0.55592 -1.18133,0.24321 -2.15419,0.41694 -3.23128,0.62541 -1.0771,0.20847 -3.47451,0.27796 -4.30839,-0.0695 -0.83388,-0.34745 -1.3489,-0.93005 -1.0771,-1.66776 0.24322,-0.66016 1.84149,-1.00759 1.84149,-1.00759 z"
       id="path995"
       sodipodi:nodetypes="cccssssssc" />
    <path
       style="fill:#e99734;fill-opacity:1;stroke:#000000;stroke-width:0.264583px;stroke-linecap:butt;stroke-linejoin:miter;stroke-opacity:1"
       d="m 77.808287,142.10393 c 0.712487,-0.34393 1.498677,-0.24569 2.923646,-0.24569 1.424972,0 2.825372,-0.0737 3.611563,-0.0983 0.78619,-0.0246 2.309434,0 3.120194,-0.0246 0.81076,-0.0246 1.670656,0.0246 2.309434,0.14741 0.638781,0.12284 1.891771,0.44223 1.400402,0.95817 -0.491368,0.51594 -2.727097,0.81076 -2.727097,0.81076 0,0 -2.407708,0.24568 -3.095625,0.19655 -0.687917,-0.0491 -2.604257,-0.12284 -3.292173,-0.12284 -0.687917,0 -1.842635,0.12284 -2.579688,0.0737 -0.737055,-0.0491 -1.744361,-0.0246 -2.162024,-0.31939 -0.417663,-0.29482 -0.466802,-0.8107 0.491368,-1.37577 z"
       id="path997"
       sodipodi:nodetypes="cssssscsscsc" />
    <path
       style="fill:#e99734;fill-opacity:1;stroke:#000000;stroke-width:0.264583px;stroke-linecap:butt;stroke-linejoin:miter;stroke-opacity:1"
       d="m 66.606239,148.70876 c 5e-6,0 2.015212,-0.48643 3.196543,-0.59066 1.18133,-0.10424 2.049957,-0.10424 3.092309,-0.20847 1.04235,-0.10424 2.084703,-0.17373 3.613484,-0.45169 1.528781,-0.27796 2.536388,-0.13898 2.918581,0.10424 0.382196,0.24321 1.181333,0.90337 0.799137,1.49404 -0.382196,0.59066 -1.25082,1.14658 -1.980467,1.14658 h -2.988074 c -0.625409,0 -1.876232,-0.10424 -3.474503,0 -1.598272,0.10424 -2.814349,0.17373 -3.370268,0.10424 -0.555921,-0.0695 -1.459294,-0.10424 -1.841487,-0.17373 -0.382196,-0.0695 -1.181333,-0.72965 0.03475,-1.42455 z"
       id="path1001"
       sodipodi:nodetypes="csssssssssssc" />
    <path
       style="fill:#e99734;fill-opacity:1;stroke:#000000;stroke-width:0.264583px;stroke-linecap:butt;stroke-linejoin:miter;stroke-opacity:1"
       d="m 113.60452,134.38943 c 0,0 0.88447,-0.73705 2.06375,-0.78619 1.17929,-0.0491 1.81807,0.14741 4.22578,0.24569 2.40771,0.0983 4.22577,0.44223 4.22577,0.44223 0,0 2.45685,0.29482 2.75167,0.3931 0.29482,0.0983 0.68791,0.73705 0.14741,1.13014 -0.54051,0.3931 -2.65339,0.29482 -2.65339,0.29482 0,0 -2.06375,0.24569 -2.84995,0.0491 -0.78619,-0.19655 -2.21116,-0.29482 -3.04648,-0.19655 -0.83533,0.0983 -3.34131,0.14741 -4.17664,0.0491 -0.83533,-0.0983 -2.06375,-0.83533 -0.68792,-1.62152 z"
       id="path1003" />
    <path
       style="fill:#e99734;fill-opacity:1;stroke:#000000;stroke-width:0.264583px;stroke-linecap:butt;stroke-linejoin:miter;stroke-opacity:1"
       d="m 132.66964,135.22476 c 0,0 0.19655,-1.13015 2.99735,-1.42497 2.80081,-0.29482 2.06375,-0.19655 4.5206,-0.19655 2.45684,0 5.04289,0.66688 5.25765,0.78619 0,0 1.22842,1.17929 -0.54051,1.37584 -1.76893,0.19654 -2.99735,0.19654 -3.63613,0.1474 -0.63878,-0.0491 -1.3267,-0.1474 -2.99735,0.0983 -1.67065,0.24569 -3.1939,0.9336 -3.83268,0.83533 -0.63878,-0.0983 -1.96547,-0.0491 -1.76893,-1.62152 z"
       id="path1005"
       sodipodi:nodetypes="csssscssc" />
    <path
       style="fill:#e99734;fill-opacity:1;stroke:#000000;stroke-width:0.264583px;stroke-linecap:butt;stroke-linejoin:miter;stroke-opacity:1"
       d="m 151.88217,134.38943 c 0,0 0.24569,-0.34396 1.67065,-0.49137 1.42498,-0.14741 2.06375,0 2.80081,0 0.73705,0 1.27756,0.14741 2.16202,0.0491 0.88447,-0.0983 1.3267,0 2.40771,-0.29482 1.08101,-0.29482 3.24304,0.24568 3.29217,0.54051 0.0491,0.29482 0.24569,1.37583 -1.13014,1.57238 -1.37584,0.19654 -2.6534,0.0491 -4.07837,0.29482 -1.42497,0.24568 -3.48872,0.29482 -4.56973,0.24568 -1.08101,-0.0491 -3.29217,-0.29482 -2.55512,-1.91634 z"
       id="path1009" />
    <path
       style="fill:#e99734;fill-opacity:1;stroke:#000000;stroke-width:0.264583px;stroke-linecap:butt;stroke-linejoin:miter;stroke-opacity:1"
       d="m 98.814889,141.75976 c 0.13898,0 1.355051,-0.31271 3.405011,-0.34746 2.04996,-0.0347 3.30078,0.13899 4.51686,0.13899 1.21607,0 0.52117,0 2.71011,0.0347 2.18894,0.0348 2.71011,0.13898 3.64823,0.31271 0.93812,0.17372 1.66776,0.55592 1.04235,0.90337 -0.62541,0.34745 -1.772,0.59066 -2.88384,0.62541 -1.11184,0.0347 -3.75246,-0.20847 -5.17701,-0.17373 -1.42455,0.0348 -2.25842,0.13898 -3.68297,0.0695 -1.42455,-0.0695 -2.466901,0 -3.23129,-0.13898 -0.764392,-0.13898 -1.459291,-0.90337 -0.347451,-1.42454 z"
       id="path1011" />
    <path
       style="fill:#e99734;fill-opacity:1;stroke:#000000;stroke-width:0.264583px;stroke-linecap:butt;stroke-linejoin:miter;stroke-opacity:1"
       d="m 121.81039,141.90738 c 0,0 0.5405,-0.19655 2.60425,-0.19655 h 4.02923 c 1.22842,0 2.65339,0.0983 3.43958,0.0983 0.78619,0 1.52325,0.19654 2.06375,0.34395 0.54051,0.14741 1.96548,0.58965 1.13015,1.08101 -0.83533,0.49138 -4.17664,0.63879 -4.17664,0.63879 l -5.06109,0.19655 c 0,0 -2.16203,-0.12284 -3.48873,-0.54051 -0.34396,-0.0491 -2.30943,-1.22843 -0.5405,-1.62152 z"
       id="path1013"
       sodipodi:nodetypes="cssssscccsc" />
    <path
       style="fill:#e99734;fill-opacity:1;stroke:#000000;stroke-width:0.264583px;stroke-linecap:butt;stroke-linejoin:miter;stroke-opacity:1"
       d="m 143.33235,140.75266 c 0,0 0.98274,-0.44223 2.21116,-0.51594 1.22842,-0.0737 3.07106,0.0983 3.36588,0.0983 0.29482,0 2.7271,0.29482 3.51329,0.36853 0.78619,0.0737 2.18659,0.19654 2.50598,0.56507 0.31939,0.36853 0.39309,0.81076 0.12284,0.98274 -0.27025,0.17198 -1.22842,0.27025 -1.94091,0.41766 -0.71248,0.14741 -2.45684,0.0491 -3.19389,0.14741 -0.73706,0.0983 -3.1202,0.4668 -3.70984,0.3931 -0.58964,-0.0737 -1.69522,-0.17198 -2.16203,-0.24569 -0.4668,-0.0737 -1.42496,-0.51593 -1.35126,-1.15471 0.0737,-0.63879 0.63878,-1.05645 0.63878,-1.05645 z"
       id="path1017" />
    <path
       style="fill:#e99734;fill-opacity:1;stroke:#000000;stroke-width:0.264583px;stroke-linecap:butt;stroke-linejoin:miter;stroke-opacity:1"
       d="m 54.29628,163.2328 c 0,0 0.343959,-0.29483 1.965476,-0.29483 1.621517,0 3.881816,0.29483 3.881816,0.29483 0,0 1.965476,0.29482 1.621517,1.17928 -0.343958,0.88447 -0.933601,0.98274 -2.06375,1.08101 -1.130149,0.0983 -3.046489,-0.14741 -3.783541,-0.19654 -0.737055,-0.0491 -1.76893,-0.0491 -2.06375,-0.34396 -0.294823,-0.29482 -0.442233,-1.27756 0.442232,-1.71979 z"
       id="path1019" />
    <path
       style="fill:#e99734;fill-opacity:1;stroke:#000000;stroke-width:0.264583px;stroke-linecap:butt;stroke-linejoin:miter;stroke-opacity:1"
       d="m 57.342767,157.3855 c 0,0 1.424971,0.83533 3.341309,1.22843 1.91634,0.39309 2.997351,0.83532 4.520597,0.78619 1.523243,-0.0491 1.670653,0.0491 3.488719,-0.49137 1.818065,-0.54051 2.260298,-0.83533 2.358572,-1.08101 0.09827,-0.24569 0.29482,-1.08102 -0.884465,-1.08102 -1.179285,0 -2.112886,-0.0491 -3.243035,0.14742 -1.130149,0.19654 -3.98009,0.44223 -4.569732,0.29482 -0.589643,-0.14741 -2.309434,-0.3931 -2.653393,-0.49137 -0.343958,-0.0983 -2.260298,-0.24569 -2.260298,-0.24569 0,0 -0.982739,0.14741 -0.09827,0.9336 z"
       id="path1021" />
    <path
       style="fill:#e99734;fill-opacity:1;stroke:#000000;stroke-width:0.264583px;stroke-linecap:butt;stroke-linejoin:miter;stroke-opacity:1"
       d="m 80.330528,156.28318 c 0.243216,-0.0347 1.181331,-0.66015 3.578739,-0.93812 2.397408,-0.27795 2.223682,-0.45168 3.960934,-0.48642 1.737251,-0.0348 3.926189,-0.24322 5.072777,-0.0695 1.146585,0.17372 2.327918,0.48643 2.640623,0.76439 0.312703,0.27796 0.729644,0.6949 0.173723,1.18133 -0.555919,0.48643 -1.667761,0.72964 -2.501641,0.76439 -0.833882,0.0347 -2.814349,-0.13898 -4.516855,0.0347 -1.702506,0.17373 -4.447365,0 -5.871911,0.0348 -1.424549,0.0347 -2.432153,0.0695 -2.814349,-0.13898 -0.382196,-0.20847 -0.347451,-0.93812 0.27796,-1.14659 z"
       id="path1023" />
    <path
       style="fill:#e99734;fill-opacity:1;stroke:#000000;stroke-width:0.264583px;stroke-linecap:butt;stroke-linejoin:miter;stroke-opacity:1"
       d="m 89.994241,148.17233 c 0,0 1.10558,-0.29482 2.776234,-0.44223 1.670656,-0.14741 2.87451,-0.29482 4.520596,-0.24568 1.646087,0.0491 3.365879,0.44223 3.709839,0.81076 0.34396,0.36852 0.83532,0.95817 0.29482,1.42497 -0.54051,0.4668 -0.98274,0.63878 -2.063752,0.61421 -1.081011,-0.0246 -1.474108,-0.24569 -2.014612,-0.29482 -0.540506,-0.0491 -0.515937,-0.12284 -1.719791,-0.12284 -1.203854,0 -1.76893,0.19654 -3.071059,0.0983 -1.302128,-0.0983 -1.424969,-0.17198 -2.112885,-0.29482 -0.687917,-0.12285 -1.818066,-0.78619 -0.31939,-1.54782 z"
       id="path1025" />
    <path
       style="fill:#e99734;fill-opacity:1;stroke:#000000;stroke-width:0.264583px;stroke-linecap:butt;stroke-linejoin:miter;stroke-opacity:1"
       d="m 111.42734,148.04861 c 0,0 0.83388,-0.41694 2.25843,-0.48643 1.42454,-0.0695 1.07709,0 2.95332,-0.0348 1.87623,-0.0347 2.88384,0.10424 3.78721,0.24322 0.90337,0.13898 2.22368,0.62541 2.29317,1.04235 0.0695,0.41694 0.27796,0.72964 -0.69489,0.86862 -0.97287,0.13898 -1.91098,0.24322 -3.05757,0.20847 -1.14658,-0.0347 -2.29317,-0.17372 -3.75246,0.10424 -1.45929,0.27796 -2.88384,0.86863 -3.50925,0.41694 -0.62541,-0.45169 -1.0771,-1.11184 -0.27796,-2.36266 z"
       id="path1027" />
    <path
       style="fill:#e99734;fill-opacity:1;stroke:#000000;stroke-width:0.264583px;stroke-linecap:butt;stroke-linejoin:miter;stroke-opacity:1"
       d="m 60.734326,171.64049 c 0,0 1.771999,-0.20847 3.682976,-0.55592 1.910977,-0.34745 3.370267,-0.24322 4.655833,-0.24322 1.285568,0 3.891446,0.0695 5.211757,0.55592 1.32031,0.48643 1.945722,0.83388 1.667761,1.3898 -0.27796,0.55593 -2.119447,0.69491 -3.092307,0.66016 -0.972862,-0.0347 -3.821956,-0.3127 -5.107522,-0.48643 -1.285565,-0.17373 -2.988072,-0.0347 -3.891444,-0.10423 -0.903372,-0.0695 -2.710113,-0.13899 -2.988074,-0.20848 -0.277958,-0.0695 -0.694899,-0.59066 -0.13898,-1.0076 z"
       id="path1031" />
    <path
       style="fill:#e99734;fill-opacity:1;stroke:#000000;stroke-width:0.264583px;stroke-linecap:butt;stroke-linejoin:miter;stroke-opacity:1"
       d="m 82.549999,171.61064 c 0,0 1.547812,-0.68792 3.071056,-0.78619 1.523246,-0.0983 2.383141,-0.22112 4.029228,-0.31939 1.646084,-0.0983 3.709834,-0.36853 4.864552,-0.31939 1.154719,0.0491 2.260299,0.12284 2.849941,0.44223 0.589643,0.31939 1.277559,0.83533 0.515938,1.57238 -0.761622,0.73705 -1.203854,1.05644 -2.948215,1.17929 -1.744361,0.12284 -3.488719,0.19655 -5.577038,0.17198 -2.08832,-0.0246 -4.053795,0.14741 -4.962827,-0.0246 -0.909034,-0.17198 -1.596951,-0.19655 -2.06375,-0.41767 -0.466802,-0.22111 -0.859896,-0.66334 0.221115,-1.49867 z"
       id="path1033" />
    <path
       style="fill:#e99734;fill-opacity:1;stroke:#000000;stroke-width:0.264583px;stroke-linecap:butt;stroke-linejoin:miter;stroke-opacity:1"
       d="m 136.548,171.74473 c 0.24322,0.0347 1.63302,-0.55593 4.5516,-0.72965 2.91858,-0.17373 3.89145,-0.0695 5.21176,0.0347 1.32031,0.10424 3.40501,0.3822 4.20415,0.45169 0.79913,0.0695 1.3898,0.79913 0.72964,1.04235 -0.66015,0.24321 -1.28557,0.20847 -2.60588,0.27796 -1.32031,0.0695 -1.84148,0.13898 -3.89144,0.27796 -2.04996,0.13898 -1.18133,0 -3.78721,0.20847 -2.60588,0.20847 -3.19654,0.17373 -4.09992,0.0695 -0.90337,-0.10423 -1.3898,-1.04235 -0.3127,-1.63301 z"
       id="path1037" />
    <path
       style="fill:#e99734;fill-opacity:1;stroke:#000000;stroke-width:0.264583px;stroke-linecap:butt;stroke-linejoin:miter;stroke-opacity:1"
       d="m 68.13502,163.33643 c 0.208471,-0.0348 1.250821,-0.52118 3.752464,-0.62542 2.501643,-0.10423 4.621091,0.45169 6.705793,0.31271 2.084702,-0.13898 4.099914,0.17373 4.690581,0.45169 0.590664,0.27795 1.667761,0.90337 1.32031,1.49403 -0.34745,0.59067 -0.555921,1.00761 -1.633016,1.0771 -1.077097,0.0695 -3.960934,0.20847 -5.072777,0.10423 -1.11184,-0.10423 -1.980467,-0.38219 -3.439758,-0.38219 -1.45929,0 -3.266035,-0.13898 -4.48211,-0.34745 -1.216075,-0.20847 -2.188938,-0.72965 -2.466898,-0.97286 -0.277961,-0.24322 -0.03475,-0.86863 0.625411,-1.11184 z"
       id="path1039" />
    <path
       style="fill:#e99734;fill-opacity:1;stroke:#000000;stroke-width:0.264583px;stroke-linecap:butt;stroke-linejoin:miter;stroke-opacity:1"
       d="m 93.359919,162.57203 c 0,0 2.779601,-0.20847 4.169404,-0.13898 1.389801,0.0695 2.675367,0.13898 3.474507,0.7644 0.79913,0.6254 1.21607,1.11184 0.79913,1.59827 -0.41694,0.48643 -1.841486,0.79913 -2.536385,0.79913 -0.694902,0 -1.771997,-0.0695 -2.432153,-0.0695 -0.660157,0 -0.903372,-0.10423 -1.598271,-0.13898 -0.694902,-0.0347 -1.945722,-0.0695 -2.362663,-0.59066 -0.416941,-0.52118 -0.729647,-1.91098 0.486431,-2.22369 z"
       id="path1041" />
    <path
       style="fill:#e99734;fill-opacity:1;stroke:#000000;stroke-width:0.264583px;stroke-linecap:butt;stroke-linejoin:miter;stroke-opacity:1"
       d="m 101.24704,156.00522 c 0,0 1.35506,-0.0695 2.81435,-0.0695 1.45929,0 2.98807,-0.17372 3.89144,-0.0695 0.90337,0.10424 1.63302,0.41694 1.94573,0.6949 0.3127,0.27796 0.72964,0.90337 0.0347,1.04235 -0.6949,0.13898 -1.32031,0.0695 -2.18894,0.0695 -0.86862,0 -1.25082,0 -2.11944,0.10424 -0.86863,0.10423 -0.83388,0.13898 -1.98047,0.17372 -1.14659,0.0348 -1.56353,0.45169 -2.22368,0.31271 -0.66016,-0.13898 -1.13868,-0.86294 -0.97286,-1.63302 0.11222,-0.52117 0.78144,-0.6254 0.79917,-0.6254 z"
       id="path1043"
       sodipodi:nodetypes="csssssscsscc" />
    <path
       style="fill:#e99734;fill-opacity:1;stroke:#000000;stroke-width:0.264583px;stroke-linecap:butt;stroke-linejoin:miter;stroke-opacity:1"
       d="m 158.33314,140.23097 c 0,0 1.3898,0.10424 2.95333,0.13898 1.56352,0.0348 0.97286,-0.0695 2.50164,0.0348 1.52878,0.10424 2.11945,0.24322 2.36266,0.31271 0.24322,0.0695 0.93812,0.34744 0.3822,0.69489 -0.55592,0.34746 -0.62541,0.62542 -1.80674,0.62542 -1.18133,0 -1.45929,-0.10424 -2.39741,0 -0.93812,0.10423 -1.18133,0.24321 -2.29317,0.24321 -1.11184,0 -1.42455,-0.0695 -1.91098,-0.38219 -0.48643,-0.31271 -0.66016,-1.14659 -0.31271,-1.3898 0.34745,-0.24322 0.52118,-0.27797 0.52118,-0.27797 z"
       id="path1045" />
    <path
       style="fill:#e99734;fill-opacity:1;stroke:#000000;stroke-width:0.264583px;stroke-linecap:butt;stroke-linejoin:miter;stroke-opacity:1"
       d="m 153.41672,149.09096 c 0,0 1.07709,-0.3822 2.76223,-0.31271 1.68513,0.0695 2.10207,0.10424 3.23129,0.1911 1.12921,0.0869 1.32031,0.0695 2.22368,0.26059 0.90337,0.1911 1.47666,0.59066 1.26819,0.86862 -0.20847,0.27797 -1.32031,0.39957 -2.13682,0.41695 -0.81651,0.0174 -2.15419,0 -3.09231,0.17372 -0.93811,0.17373 -2.67536,0.36482 -3.6656,0.20847 -0.99023,-0.15635 -1.40717,-0.46906 -1.40717,-0.83388 0,-0.36482 0.81651,-0.97286 0.81651,-0.97286 z"
       id="path1047" />
    <path
       style="fill:#e99734;fill-opacity:1;stroke:#000000;stroke-width:0.264583px;stroke-linecap:butt;stroke-linejoin:miter;stroke-opacity:1"
       d="m 151.14092,163.47541 c 0,0 0.93811,-0.24322 2.25842,-0.31271 1.32032,-0.0695 1.35506,-0.13898 2.67537,-0.0695 1.32031,0.0695 1.91098,0.0695 2.15419,0.52117 0.24322,0.45169 0.7644,0.97287 -0.0347,1.32032 -0.79914,0.34745 -2.04996,0.3127 -3.05756,0.41694 -1.00761,0.10423 -2.1542,0.17372 -3.05757,0.17372 -0.90337,0 -1.63301,-0.24321 -1.91097,-0.55592 -0.27797,-0.3127 -0.34746,-1.18133 0.97286,-1.49403 z"
       id="path1049" />
    <path
       style="fill:#e99734;fill-opacity:1;stroke:#000000;stroke-width:0.264583px;stroke-linecap:butt;stroke-linejoin:miter;stroke-opacity:1"
       d="m 128.45241,163.64913 c 0,0 2.0847,-0.66016 4.09991,-0.66016 2.01521,0 2.0847,-0.0347 4.03043,0 1.94572,0.0348 2.43215,-0.0695 3.4745,-0.13898 1.04235,-0.0695 1.70251,-0.0695 2.91858,0.20848 1.21608,0.27796 1.52878,0.6254 1.49404,1.0076 -0.0347,0.3822 -0.90337,0.93812 -1.80674,1.18133 -0.90337,0.24322 -3.71772,0.3822 -4.62109,0.41694 -0.90338,0.0348 -1.87623,0.17373 -3.64823,0.34745 -1.772,0.17373 -3.26604,0.13898 -4.58635,0.10424 -1.32031,-0.0348 -2.36266,-0.66016 -2.39741,-1.0771 -0.0347,-0.41694 0.31271,-0.97286 1.04236,-1.3898 z"
       id="path1051" />
    <path
       style="fill:#e99734;fill-opacity:1;stroke:#000000;stroke-width:0.264583px;stroke-linecap:butt;stroke-linejoin:miter;stroke-opacity:1"
       d="m 100.26385,171.70891 c 0,0 -0.835324,0.54051 -0.540504,0.95817 0.294824,0.41766 0.491374,0.56508 1.375834,0.66335 0.88446,0.0983 1.22842,0.0737 2.35857,0.0737 1.13015,0 0.78619,-0.0491 2.01462,-0.0737 1.22842,-0.0246 1.74435,0.0737 2.70252,0.0246 0.95817,-0.0491 1.3267,-0.14741 1.42498,-0.44223 0.0983,-0.29482 0.0491,-0.90904 -0.36853,-0.98274 -0.41766,-0.0737 -1.54781,-0.31939 -2.53055,-0.27025 -0.98274,0.0491 -2.99735,-0.12285 -3.61157,-0.14741 -0.61421,-0.0246 -2.08831,-0.22112 -2.82537,0.19654 z"
       id="path1053" />
    <path
       style="fill:#e99734;fill-opacity:1;stroke:#000000;stroke-width:0.264583px;stroke-linecap:butt;stroke-linejoin:miter;stroke-opacity:1"
       d="m 117.09078,155.29295 c 0,0 0.64278,-0.29533 2.25843,-0.3822 1.61564,-0.0869 1.82411,-0.19109 3.19654,-0.13898 1.37243,0.0521 1.73725,0 3.49188,0.27796 1.75462,0.27796 3.19654,0.46906 4.20415,0.74702 1.0076,0.27796 1.98046,0.43431 1.92835,1.02498 -0.0521,0.59067 -0.81651,0.78176 -1.92835,0.76439 -1.11185,-0.0174 -2.43216,-0.0348 -3.50925,-0.0695 -1.0771,-0.0348 -1.9631,-0.20847 -3.70035,-0.10423 -1.73725,0.10423 -3.75246,0.10423 -4.46474,0.0521 -0.71227,-0.0521 -1.75462,-0.3127 -2.15419,-0.55592 -0.39957,-0.24321 -0.78176,-1.09447 0.67753,-1.61564 z"
       id="path1055" />
    <path
       style="fill:#e99734;fill-opacity:1;stroke:#000000;stroke-width:0.264583px;stroke-linecap:butt;stroke-linejoin:miter;stroke-opacity:1"
       d="m 110.66295,163.45803 c 0,0 1.11184,-0.78176 2.34529,-0.886 1.23344,-0.10423 2.69274,-0.15635 3.57873,-0.13898 0.886,0.0174 1.35506,0.0348 2.03259,0.20847 0.67753,0.17373 1.00761,0.71228 0.79914,1.37243 -0.20847,0.66016 -0.34745,0.67753 -0.60804,0.886 -0.26059,0.20847 -1.51141,0.20847 -2.01521,0.29533 -0.50381,0.0869 -1.42455,0.13899 -2.2758,0.26059 -0.85126,0.12161 -2.43216,0.15636 -3.00545,-0.0521 -0.57329,-0.20848 -0.62541,-0.15636 -0.97286,-0.53855 -0.34745,-0.3822 -0.41694,-1.05973 0.12161,-1.40718 z"
       id="path1057" />
    <path
       style="fill:#e99734;fill-opacity:1;stroke:#000000;stroke-width:0.264583px;stroke-linecap:butt;stroke-linejoin:miter;stroke-opacity:1"
       d="m 114.53812,170.75074 c 0,0 1.49868,-0.68792 2.77624,-0.66335 1.27756,0.0246 1.69522,0.29483 3.53786,0.34396 1.84263,0.0491 3.04648,0.22112 4.05379,0.22112 1.00731,0 2.99735,0.29482 4.32405,0.8599 1.3267,0.56507 1.44954,0.9336 1.35126,1.10558 -0.0983,0.17197 -0.24568,0.36852 -1.0073,0.58964 -0.76163,0.22111 -2.57969,0.29482 -3.34131,0.27025 -0.76162,-0.0246 -0.9336,-0.0737 -3.07106,-0.0737 -2.13745,0 -3.21847,0 -4.1275,0.0245 -0.90903,0.0246 -2.35857,0.0983 -3.04648,-0.0491 -0.68792,-0.14741 -1.717,-0.38174 -2.28487,-0.8599 -0.39511,-0.33269 -0.98274,-1.08101 0.83532,-1.76893 z"
       id="path1059"
       sodipodi:nodetypes="csssssssscsssc" />
    <path
       style="fill:#e99734;fill-opacity:1;stroke:#000000;stroke-width:0.264583px;stroke-linecap:butt;stroke-linejoin:miter;stroke-opacity:1"
       d="m 132.62051,147.6564 c 0,0 0.88446,-0.24569 1.89177,-0.24569 1.0073,0 1.76892,0.27026 2.75166,0.29482 0.98274,0.0246 1.54781,0.27026 2.77624,0.27026 1.22842,0 2.8008,0.24568 3.58699,0.31939 0.78619,0.0737 2.11289,0.41766 2.40771,0.68791 0.29482,0.27026 0.24568,0.78619 -0.0983,0.90904 -0.34396,0.12284 -1.37584,0.22111 -2.23573,0.24568 -0.8599,0.0246 -1.76893,0.12284 -2.99735,0.12284 -1.22843,0 -2.57969,-0.14741 -3.36588,-0.12284 -0.78619,0.0246 -1.59695,0.14741 -2.62883,0.0491 -1.03187,-0.0983 -1.42497,-0.12284 -2.18659,-0.56508 -0.76162,-0.44223 -1.13015,-1.22842 0.0983,-1.96547 z"
       id="path1061" />
    <path
       style="fill:#e99734;fill-opacity:1;stroke:#000000;stroke-width:0.264583px;stroke-linecap:butt;stroke-linejoin:miter;stroke-opacity:1"
       d="m 141.48179,156.8391 c 1.35506,-0.24321 1.66777,-0.3127 2.71012,-0.20847 1.04235,0.10424 1.07709,0.27796 2.95333,0.31271 1.87623,0.0347 0.62541,0.20847 3.26603,0.0695 2.64062,-0.13898 2.36266,-0.31271 3.4745,-0.3822 1.11185,-0.0695 1.32032,0.0695 0.97287,0.62541 -0.34745,0.55592 -1.04236,0.76439 -2.29318,1.0771 -1.25082,0.3127 -1.94572,0.90337 -3.68297,1.00761 -1.73725,0.10423 -1.87623,0.27795 -3.61349,0.0347 -1.73725,-0.24321 -1.7025,-0.20847 -2.50164,-0.55592 -0.79913,-0.34745 -1.28557,-0.59067 -1.52878,-0.79914 -0.24322,-0.20847 -0.31271,-0.86862 0.24321,-1.18133 z"
       id="path1065" />
  </g>
  <g
     inkscape:groupmode="layer"
     id="layer4"
     inkscape:label="Frutas"
     style="display:inline" />
</svg>
