<?xml version="1.0" encoding="UTF-8" standalone="no"?>
<svg
   xmlns:dc="http://purl.org/dc/elements/1.1/"
   xmlns:cc="http://creativecommons.org/ns#"
   xmlns:rdf="http://www.w3.org/1999/02/22-rdf-syntax-ns#"
   xmlns:svg="http://www.w3.org/2000/svg"
   xmlns="http://www.w3.org/2000/svg"
   xmlns:sodipodi="http://sodipodi.sourceforge.net/DTD/sodipodi-0.dtd"
   xmlns:inkscape="http://www.inkscape.org/namespaces/inkscape"
   width="210mm"
   height="297mm"
   viewBox="0 0 210 297"
   version="1.1"
   id="svg8"
   inkscape:version="1.0.1 (3bc2e813f5, 2020-09-07)"
   sodipodi:docname="canasta-frutas.svg">
  <defs
     id="defs2" />
  <sodipodi:namedview
     id="base"
     pagecolor="#ffffff"
     bordercolor="#666666"
     borderopacity="1.0"
     inkscape:pageopacity="0.0"
     inkscape:pageshadow="2"
     inkscape:zoom="0.78237147"
     inkscape:cx="478.33816"
     inkscape:cy="411.87947"
     inkscape:document-units="mm"
     inkscape:current-layer="layer2"
     inkscape:document-rotation="0"
     showgrid="false"
     inkscape:window-width="1366"
     inkscape:window-height="745"
     inkscape:window-x="-8"
     inkscape:window-y="-8"
     inkscape:window-maximized="1" />
  <metadata
     id="metadata5">
    <rdf:RDF>
      <cc:Work
         rdf:about="">
        <dc:format>image/svg+xml</dc:format>
        <dc:type
           rdf:resource="http://purl.org/dc/dcmitype/StillImage" />
        <dc:title />
      </cc:Work>
    </rdf:RDF>
  </metadata>
  <g
     inkscape:groupmode="layer"
     id="layer2"
     inkscape:label="Capas 2"
     style="display:inline"
     sodipodi:insensitive="true">
    <path
       style="display:inline;fill:#f2c464;fill-opacity:1;stroke:#000000;stroke-width:0.264583px;stroke-linecap:butt;stroke-linejoin:miter;stroke-opacity:1"
       d="m 43.042664,123.2718 c 0,0 0.9336,7.17399 1.27756,9.67997 0.34396,2.50598 1.67066,9.28688 1.67066,9.28688 0,0 1.96547,7.46881 2.30943,8.79551 0.34396,1.32669 3.14476,9.72911 3.43959,10.51529 0.29482,0.78619 2.11288,4.76628 2.40771,5.50333 0.29481,0.73706 2.99735,4.66801 5.11023,6.43695 2.11289,1.76893 4.91369,4.07837 8.10759,5.0611 3.1939,0.98274 9.28688,2.01461 12.82473,2.35857 3.53786,0.34397 8.79551,0.63879 11.59631,0.63879 2.8008,0 9.532566,0.0491 9.925666,0.0491 0.3931,0 8.15672,-0.0983 8.15672,-0.0983 h 11.25235 c 0,0 8.99205,-0.0983 9.72911,-0.0983 0.73705,0 5.35592,-0.34397 8.05845,-0.73705 2.70253,-0.39311 9.53256,-1.96549 12.3825,-3.73442 2.84994,-1.76893 6.04384,-4.71715 7.12485,-6.14211 1.08101,-1.42498 4.42232,-7.32141 5.01196,-8.99206 0.58965,-1.67066 2.2603,-6.68263 3.04649,-9.28688 0.78619,-2.60426 2.55512,-9.58169 2.75167,-10.76098 0.19654,-1.17929 1.57238,-8.79551 1.96547,-11.00667 0.3931,-2.21116 0.88447,-7.41967 0.88447,-7.41967 l 0.0236,-0.32554 c 0,0 1.26625,-1.13628 1.59793,-1.62765 0.33167,-0.49137 0.82304,-1.49868 0.89674,-1.78122 0.0737,-0.28253 0.27026,-2.00232 0.24569,-2.34628 -0.0246,-0.34396 0.1084,-0.77391 0.0347,-1.11787 -0.0737,-0.34396 1.1914,-2.64023 -0.38949,-7.82353 -1.61711,-3.44026 -3.64873,-5.30141 -6.00403,-6.70691 -3.49692,-2.086764 -7.10887,-2.983278 -12.34397,-3.888808 -6.41253,-1.1092 -12.54777,-0.98678 -12.54777,-0.98678 l -17.73916,-0.3759 -16.82266,0.0894 -12.095235,0.0682 -15.198542,-0.10199 c 0,0 -9.119561,0.2906 -13.025828,0.52729 -4.969137,0.30109 -12.797681,1.17938 -15.96988,1.99052 -3.172199,0.811154 -6.820791,0.848434 -10.392947,7.145168 -1.896116,3.34234 -1.796242,5.21692 -1.874071,8.88044 -0.05027,2.36621 1.230397,5.90162 1.230397,5.90162 0.338918,1.62779 1.34103,2.4306 1.34103,2.4306 z"
       id="path1068-8"
       sodipodi:nodetypes="cscsscsssssccssssssssccsssscsscccccszssscc" />
    <path
       style="display:inline;fill:#e99734;fill-opacity:1;stroke:#000000;stroke-width:0.264583px;stroke-linecap:butt;stroke-linejoin:miter;stroke-opacity:1"
       d="m 47.125794,135.89756 c 0,0 0.78011,-0.6513 2.40827,-0.51332 0.16113,0.0137 0.32543,0.0112 0.49081,0.0219 1.52324,0.0983 3.1939,0.14742 4.22577,0.14742 1.03188,0 1.03869,0.1365 1.48092,0.33309 0.44223,0.19655 0.33247,0.75241 -0.17722,1.45025 -0.47673,0.65273 -1.15629,0.6244 -2.67953,0.67353 -1.52325,0.0491 -4.91369,-0.54049 -4.91369,-0.54049 0,0 -1.67066,-0.0983 -0.83533,-1.57237 z"
       id="path848-0-88"
       sodipodi:nodetypes="cssscscccc" />
    <path
       style="display:inline;fill:#e99734;fill-opacity:1;stroke:#000000;stroke-width:0.264583px;stroke-linecap:butt;stroke-linejoin:miter;stroke-opacity:1"
       d="m 50.893354,145.06597 c 0,0 0.74536,-0.92927 3.2074,-0.61757 0.16043,0.0203 0.32543,0.0112 0.49081,0.0219 1.52324,0.0983 3.1939,0.14741 4.22577,0.14741 1.03188,0 1.15135,-0.0313 1.59359,0.16534 0.44223,0.19656 0.88736,0.58886 0.37768,1.2867 -0.47673,0.65273 -3.03993,0.39981 -4.56318,0.44892 -1.52324,0.0491 -3.87134,-0.0541 -3.87134,-0.0541 0,0 -2.29606,0.0754 -1.46073,-1.39864 z"
       id="path848-0-8-5"
       sodipodi:nodetypes="cssscscccc" />
    <path
       style="display:inline;fill:#e99734;fill-opacity:1;stroke:#000000;stroke-width:0.264583px;stroke-linecap:butt;stroke-linejoin:miter;stroke-opacity:1"
       d="m 58.795634,136.81382 c 0,0 0.74536,-0.92927 3.2074,-0.61756 0.16043,0.0203 0.32543,0.0112 0.49081,0.0219 1.52324,0.0983 3.29217,-0.14741 4.32405,-0.14741 1.03187,0 2.37977,-0.12957 2.822,0.0671 0,0 1.77183,0.19575 1.16387,1.58152 -0.32473,0.74019 -5.15281,0.49808 -6.67606,0.5472 -1.52324,0.0491 -3.87134,-0.0541 -3.87134,-0.0541 0,0 -2.29606,0.0754 -1.46073,-1.39864 z"
       id="path848-0-8-2-9"
       sodipodi:nodetypes="cssscscccc" />
    <path
       style="display:inline;fill:#e99734;fill-opacity:1;stroke:#000000;stroke-width:0.264583px;stroke-linecap:butt;stroke-linejoin:miter;stroke-opacity:1"
       d="m 40.438414,115.80299 c 0,0 1.717829,2.52571 5.01196,4.1275 3.43172,1.66868 9.241665,2.87156 9.241665,2.87156 0,0 8.021114,1.67655 10.871054,1.92224 2.84994,0.24568 13.933263,1.16946 13.933263,1.16946 l 15.061442,0.2005 c 0,0 16.513932,0.0983 17.742352,0.0491 1.22842,-0.0491 17.68535,-0.30271 18.86464,-0.30271 1.17928,0 13.65219,-0.30661 14.53666,-0.35571 0.88446,-0.0491 9.17786,0.11959 12.28816,-0.2909 3.39938,-0.26591 4.20203,-0.37056 10.16348,-3.28431 1.1613,-0.5676 3.33344,-2.51973 4.41446,-3.4042 1.08101,-0.88446 2.32908,-2.55512 2.37822,-2.8008 0.0491,-0.24569 0.22603,1.57238 -0.0688,3.14476 -0.29482,1.57238 -1.56444,3.07918 -2.45684,3.98009 -1.23629,1.24807 -1.71637,2.10517 -3.43096,3.37111 -3.09068,2.01493 -4.28939,3.43726 -8.79839,3.97708 l -5.03781,0.3544 -10.09665,0.0413 -37.36384,-0.002 v 0 L 91.747155,130.35407 74.266366,130.2083 c 0,0 -8.576532,-0.59733 -11.728451,-1.0786 -5.288505,-0.80752 -8.086718,-1.30477 -11.587221,-2.17155 -5.35591,-1.99312 -7.31839,-3.09699 -8.35027,-4.12887 -1.03187,-1.03187 -2.55512,-2.75167 -2.60426,-4.17664 -0.0491,-1.42497 0.44224,-2.84994 0.44224,-2.84994 z"
       id="path987-3"
       sodipodi:nodetypes="cscscccsscsscssccccccccscsccc" />
    <path
       style="display:inline;fill:#e99734;fill-opacity:1;stroke:#000000;stroke-width:0.264583px;stroke-linecap:round;stroke-linejoin:round;stroke-opacity:1"
       d="m 72.868764,174.57074 c 0,0 1.57239,-0.39309 3.43959,-0.49137 1.8672,-0.0983 3.43958,-0.0491 3.43958,-0.0491 0,0 3.83268,-0.0491 4.37318,0.0983 0.54051,0.14741 2.35858,0.49137 2.30944,1.22842 -0.0491,0.73705 -0.19655,1.42497 -1.57238,1.57238 -1.37584,0.14741 -6.43694,-0.34396 -8.255,-0.73705 -1.81807,-0.3931 -3.73441,-1.62152 -3.73441,-1.62152 z"
       id="path989-2" />
    <path
       style="display:inline;fill:#e99734;fill-opacity:1;stroke:#000000;stroke-width:0.264583px;stroke-linecap:butt;stroke-linejoin:miter;stroke-opacity:1"
       d="m 96.208794,174.66901 c 0,0 2.014625,-0.34398 3.685279,-0.39309 1.670657,-0.0491 3.734397,0.24568 3.881807,0.73705 0.14741,0.49138 0.58964,1.42497 -0.49137,1.67067 -1.081,0.24567 -3.292157,0.49136 -4.815411,0.29482 -1.523245,-0.19656 -3.292175,-0.49138 -3.488725,-0.93361 -0.19655,-0.44224 0.78619,-1.37584 1.22842,-1.37584 z"
       id="path991-0"
       sodipodi:nodetypes="csssssc" />
    <path
       style="display:inline;fill:#e99734;fill-opacity:1;stroke:#000000;stroke-width:0.264583px;stroke-linecap:butt;stroke-linejoin:miter;stroke-opacity:1"
       d="m 111.3921,174.7673 c 0,0 0.83533,-0.34397 1.57238,-0.39311 0.73706,-0.0491 1.81807,-0.0491 2.11289,-0.0491 0.29482,0 2.2603,0.14741 2.65339,0.14741 0.3931,0 2.2603,0.34395 2.30944,0.78619 0.0491,0.44223 0,0.9336 -0.78619,1.17928 -0.78619,0.24569 -3.29218,0.34396 -3.29218,0.34396 0,0 -2.30943,0.0491 -2.70253,0.0983 -0.39309,0.0491 -1.67065,-0.0983 -1.91633,-0.44223 -0.24569,-0.34396 -0.49138,-0.88446 0.0491,-1.67065 z"
       id="path993-6" />
    <path
       style="display:inline;fill:#e99734;fill-opacity:1;stroke:#000000;stroke-width:0.264583px;stroke-linecap:butt;stroke-linejoin:miter;stroke-opacity:1"
       d="m 130.5447,174.1401 c 0,0 3.96094,0.0348 6.42783,-0.0695 2.4669,-0.10423 3.99568,0.0347 4.69058,0.17373 0.69491,0.13898 1.56353,0.3127 0.93812,0.72964 -0.62541,0.41694 -1.80674,0.59067 -2.25843,0.72965 -0.45168,0.13898 -1.84149,0.3127 -3.02282,0.55592 -1.18133,0.24321 -2.15419,0.41694 -3.23128,0.62541 -1.0771,0.20847 -3.47451,0.27796 -4.30839,-0.0695 -0.83388,-0.34745 -1.3489,-0.93005 -1.0771,-1.66776 0.24322,-0.66016 1.84149,-1.00759 1.84149,-1.00759 z"
       id="path995-8"
       sodipodi:nodetypes="cccssssssc" />
    <path
       style="display:inline;fill:#e99734;fill-opacity:1;stroke:#000000;stroke-width:0.264583px;stroke-linecap:butt;stroke-linejoin:miter;stroke-opacity:1"
       d="m 79.379404,137.61978 c 0.71249,-0.34393 1.49868,-0.24569 2.92365,-0.24569 1.42497,0 2.82537,-0.0737 3.61156,-0.0983 0.78619,-0.0246 2.30944,0 3.1202,-0.0246 0.81076,-0.0246 1.67065,0.0246 2.30943,0.14741 0.63878,0.12284 1.89177,0.44223 1.4004,0.95817 -0.49137,0.51594 -2.7271,0.81077 -2.7271,0.81077 0,0 -2.4077,0.24567 -3.09562,0.19654 -0.68792,-0.0491 -2.60426,-0.12283 -3.29217,-0.12283 -0.68792,0 -1.84264,0.12283 -2.57969,0.0737 -0.73706,-0.0491 -1.74436,-0.0246 -2.16203,-0.31939 -0.41766,-0.29482 -0.4668,-0.8107 0.49137,-1.37577 z"
       id="path997-4"
       sodipodi:nodetypes="cssssscsscsc" />
    <path
       style="display:inline;fill:#e99734;fill-opacity:1;stroke:#000000;stroke-width:0.264583px;stroke-linecap:butt;stroke-linejoin:miter;stroke-opacity:1"
       d="m 68.177354,144.22461 c 1e-5,0 2.01522,-0.48642 3.19655,-0.59065 1.18133,-0.10425 2.04995,-0.10425 3.09231,-0.20847 1.04235,-0.10425 2.0847,-0.17374 3.61348,-0.4517 1.52878,-0.27796 2.53639,-0.13898 2.91858,0.10424 0.3822,0.24321 1.18133,0.90337 0.79914,1.49405 -0.3822,0.59065 -1.25082,1.14658 -1.98047,1.14658 h -2.98807 c -0.62541,0 -1.87623,-0.10425 -3.47451,0 -1.59827,0.10423 -2.81434,0.17372 -3.37026,0.10423 -0.55592,-0.0695 -1.4593,-0.10423 -1.84149,-0.17372 -0.3822,-0.0695 -1.18133,-0.72966 0.0348,-1.42456 z"
       id="path1001-5"
       sodipodi:nodetypes="csssssssssssc" />
    <path
       style="display:inline;fill:#e99734;fill-opacity:1;stroke:#000000;stroke-width:0.264583px;stroke-linecap:butt;stroke-linejoin:miter;stroke-opacity:1"
       d="m 100.38601,137.27561 c 0.13898,0 1.35506,-0.31271 3.40501,-0.34746 2.04996,-0.0347 3.30078,0.13899 4.51686,0.13899 1.21607,0 0.52117,0 2.71011,0.0347 2.18894,0.0348 2.71011,0.13898 3.64823,0.31271 0.93812,0.17372 1.66776,0.55592 1.04235,0.90337 -0.62541,0.34745 -1.772,0.59066 -2.88384,0.62541 -1.11184,0.0347 -3.75246,-0.20847 -5.17701,-0.17373 -1.42455,0.0348 -2.25842,0.13898 -3.68297,0.0695 -1.42455,-0.0695 -2.4669,0 -3.23128,-0.13898 -0.764397,-0.13898 -1.459297,-0.90337 -0.34746,-1.42454 z"
       id="path1011-2" />
    <path
       style="display:inline;fill:#e99734;fill-opacity:1;stroke:#000000;stroke-width:0.264583px;stroke-linecap:butt;stroke-linejoin:miter;stroke-opacity:1"
       d="m 123.38151,137.42323 c 0,0 0.5405,-0.19655 2.60425,-0.19655 h 4.02923 c 1.22842,0 2.65339,0.0983 3.43958,0.0983 0.78619,0 1.52325,0.19654 2.06375,0.34395 0.54051,0.14741 1.96548,0.58965 1.13015,1.08101 -0.83533,0.49138 -4.17664,0.63879 -4.17664,0.63879 l -5.06109,0.19656 c 0,0 -2.16203,-0.12285 -3.48873,-0.54052 -0.34396,-0.0491 -2.30943,-1.22843 -0.5405,-1.62152 z"
       id="path1013-3"
       sodipodi:nodetypes="cssssscccsc" />
    <path
       style="display:inline;fill:#e99734;fill-opacity:1;stroke:#000000;stroke-width:0.264583px;stroke-linecap:butt;stroke-linejoin:miter;stroke-opacity:1"
       d="m 144.90347,136.26851 c 0,0 0.98274,-0.44223 2.21116,-0.51594 1.22842,-0.0737 3.07106,0.0983 3.36588,0.0983 0.29482,0 2.7271,0.29482 3.51329,0.36853 0.78619,0.0737 2.18659,0.19654 2.50598,0.56507 0.31939,0.36853 0.39309,0.81076 0.12284,0.98274 -0.27025,0.17198 -1.22842,0.27025 -1.94091,0.41766 -0.71248,0.14741 -2.45684,0.0491 -3.19389,0.14741 -0.73706,0.0983 -3.1202,0.4668 -3.70984,0.3931 -0.58964,-0.0737 -1.69522,-0.17198 -2.16203,-0.24569 -0.4668,-0.0737 -1.42496,-0.51593 -1.35126,-1.15471 0.0737,-0.63879 0.63878,-1.05645 0.63878,-1.05645 z"
       id="path1017-2" />
    <path
       style="display:inline;fill:#e99734;fill-opacity:1;stroke:#000000;stroke-width:0.264583px;stroke-linecap:butt;stroke-linejoin:miter;stroke-opacity:1"
       d="m 55.867404,158.74865 c 0,0 0.34396,-0.29483 1.96547,-0.29483 1.62152,0 3.88182,0.29483 3.88182,0.29483 0,0 1.96547,0.29482 1.62152,1.17928 -0.34396,0.88447 -0.93361,0.98275 -2.06375,1.08101 -1.13015,0.0983 -3.04649,-0.14741 -3.78355,-0.19654 -0.73705,-0.0491 -1.76893,-0.0491 -2.06375,-0.34396 -0.29482,-0.29482 -0.44223,-1.27756 0.44224,-1.71979 z"
       id="path1019-5" />
    <path
       style="display:inline;fill:#e99734;fill-opacity:1;stroke:#000000;stroke-width:0.264583px;stroke-linecap:butt;stroke-linejoin:miter;stroke-opacity:1"
       d="m 58.913884,152.90135 c 0,0 1.42497,0.83533 3.34131,1.22843 1.91634,0.39309 2.99735,0.83532 4.5206,0.78619 1.52324,-0.0491 1.67065,0.0491 3.48872,-0.49137 1.81806,-0.54051 2.2603,-0.83533 2.35857,-1.08101 0.0983,-0.24568 0.29482,-1.08102 -0.88447,-1.08102 -1.17928,0 -2.11288,-0.0491 -3.24303,0.14742 -1.13015,0.19654 -3.98009,0.44223 -4.56973,0.29482 -0.58964,-0.14741 -2.30944,-0.3931 -2.65339,-0.49137 -0.34396,-0.0983 -2.2603,-0.24569 -2.2603,-0.24569 0,0 -0.98274,0.14741 -0.0983,0.9336 z"
       id="path1021-0" />
    <path
       style="display:inline;fill:#e99734;fill-opacity:1;stroke:#000000;stroke-width:0.264583px;stroke-linecap:butt;stroke-linejoin:miter;stroke-opacity:1"
       d="m 81.901644,151.79903 c 0.24322,-0.0347 1.18133,-0.66014 3.57874,-0.93812 2.39741,-0.27795 2.22369,-0.45168 3.96094,-0.48642 1.73725,-0.0348 3.92619,-0.24321 5.07277,-0.0695 1.14659,0.17372 2.32792,0.48643 2.640633,0.76439 0.3127,0.27796 0.72964,0.6949 0.17372,1.18133 -0.555923,0.48643 -1.667763,0.72964 -2.501643,0.76439 -0.83388,0.0347 -2.81435,-0.13898 -4.51686,0.0347 -1.7025,0.17373 -4.44736,0 -5.87191,0.0348 -1.42455,0.0347 -2.43215,0.0695 -2.81435,-0.13898 -0.38219,-0.20847 -0.34745,-0.93812 0.27796,-1.14659 z"
       id="path1023-6" />
    <path
       style="display:inline;fill:#e99734;fill-opacity:1;stroke:#000000;stroke-width:0.264583px;stroke-linecap:butt;stroke-linejoin:miter;stroke-opacity:1"
       d="m 91.565364,143.68818 c 0,0 1.10558,-0.29482 2.77623,-0.44223 1.67066,-0.14741 2.874513,-0.29482 4.520609,-0.24568 1.646077,0.0491 3.365877,0.44223 3.709827,0.81076 0.34396,0.36853 0.83532,0.95817 0.29482,1.42497 -0.5405,0.4668 -0.98273,0.63878 -2.06375,0.61421 -1.081007,-0.0246 -1.474097,-0.24569 -2.014611,-0.29482 -0.5405,-0.0491 -0.51594,-0.12284 -1.719795,-0.12284 -1.20385,0 -1.76893,0.19654 -3.07106,0.0983 -1.30213,-0.0983 -1.42497,-0.17198 -2.11288,-0.29482 -0.68792,-0.12284 -1.81807,-0.78619 -0.31939,-1.54782 z"
       id="path1025-3" />
    <path
       style="display:inline;fill:#e99734;fill-opacity:1;stroke:#000000;stroke-width:0.264583px;stroke-linecap:butt;stroke-linejoin:miter;stroke-opacity:1"
       d="m 112.99846,143.56447 c 0,0 0.83388,-0.41695 2.25843,-0.48644 1.42454,-0.0695 1.07709,0 2.95332,-0.0348 1.87623,-0.0347 2.88384,0.10425 3.78721,0.24323 0.90337,0.13898 2.22368,0.6254 2.29317,1.04235 0.0695,0.41694 0.27796,0.72963 -0.69489,0.86861 -0.97287,0.13898 -1.91098,0.24323 -3.05757,0.20847 -1.14658,-0.0347 -2.29317,-0.17372 -3.75246,0.10425 -1.45929,0.27796 -2.88384,0.86863 -3.50925,0.41694 -0.62541,-0.45169 -1.0771,-1.11184 -0.27796,-2.36266 z"
       id="path1027-5" />
    <path
       style="display:inline;fill:#e99734;fill-opacity:1;stroke:#000000;stroke-width:0.264583px;stroke-linecap:butt;stroke-linejoin:miter;stroke-opacity:1"
       d="m 62.305444,167.15635 c 0,0 1.772,-0.20848 3.68298,-0.55593 1.91098,-0.34744 3.37026,-0.24321 4.65583,-0.24321 1.28557,0 3.89145,0.0695 5.21176,0.55591 1.32031,0.48644 1.94572,0.83388 1.66776,1.3898 -0.27796,0.55593 -2.11945,0.69491 -3.09231,0.66016 -0.97286,-0.0347 -3.82195,-0.3127 -5.10752,-0.48642 -1.28557,-0.17374 -2.98807,-0.0347 -3.89144,-0.10423 -0.90338,-0.0695 -2.71012,-0.139 -2.98808,-0.20849 -0.27796,-0.0695 -0.6949,-0.59066 -0.13898,-1.00759 z"
       id="path1031-5" />
    <path
       style="display:inline;fill:#e99734;fill-opacity:1;stroke:#000000;stroke-width:0.264583px;stroke-linecap:butt;stroke-linejoin:miter;stroke-opacity:1"
       d="m 84.121114,167.12649 c 0,0 1.54782,-0.68791 3.07106,-0.78619 1.52325,-0.0983 2.38314,-0.22112 4.02923,-0.31939 1.64608,-0.0983 3.70983,-0.36853 4.86455,-0.31938 1.154723,0.0491 2.260305,0.12283 2.849949,0.44223 0.58964,0.31938 1.277557,0.83532 0.51594,1.57237 -0.761624,0.73705 -1.203854,1.05644 -2.948229,1.17929 -1.74436,0.12285 -3.48871,0.19655 -5.57703,0.17198 -2.08832,-0.0246 -4.0538,0.14741 -4.96283,-0.0246 -0.90903,-0.17198 -1.59695,-0.19655 -2.06375,-0.41767 -0.4668,-0.22111 -0.8599,-0.66334 0.22111,-1.49867 z"
       id="path1033-4" />
    <path
       style="display:inline;fill:#e99734;fill-opacity:1;stroke:#000000;stroke-width:0.264583px;stroke-linecap:butt;stroke-linejoin:miter;stroke-opacity:1"
       d="m 138.11912,167.26059 c 0.24322,0.0347 1.63302,-0.55594 4.5516,-0.72966 2.91858,-0.17372 3.89145,-0.0695 5.21176,0.0347 1.32031,0.10424 3.40501,0.3822 4.20415,0.4517 0.79913,0.0695 1.3898,0.79912 0.72964,1.04235 -0.66015,0.24321 -1.28557,0.20847 -2.60588,0.27796 -1.32031,0.0695 -1.84148,0.13897 -3.89144,0.27795 -2.04996,0.13898 -1.18133,0 -3.78721,0.20847 -2.60588,0.20847 -3.19654,0.17373 -4.09992,0.0695 -0.90337,-0.10423 -1.3898,-1.04234 -0.3127,-1.63301 z"
       id="path1037-1" />
    <path
       style="display:inline;fill:#e99734;fill-opacity:1;stroke:#000000;stroke-width:0.264583px;stroke-linecap:butt;stroke-linejoin:miter;stroke-opacity:1"
       d="m 69.706144,158.85228 c 0.20847,-0.0348 1.25082,-0.52118 3.75246,-0.62542 2.50164,-0.10423 4.62109,0.4517 6.70579,0.31272 2.0847,-0.13899 4.09992,0.17372 4.69058,0.45168 0.59067,0.27795 1.66776,0.90337 1.32031,1.49403 -0.34744,0.59067 -0.55592,1.00761 -1.63301,1.0771 -1.0771,0.0695 -3.96094,0.20848 -5.07278,0.10423 -1.11184,-0.10423 -1.98047,-0.38219 -3.43976,-0.38219 -1.45929,0 -3.26603,-0.13898 -4.48211,-0.34745 -1.21607,-0.20846 -2.18894,-0.72965 -2.4669,-0.97286 -0.27796,-0.24321 -0.0347,-0.86863 0.62542,-1.11184 z"
       id="path1039-5" />
    <path
       style="display:inline;fill:#e99734;fill-opacity:1;stroke:#000000;stroke-width:0.264583px;stroke-linecap:butt;stroke-linejoin:miter;stroke-opacity:1"
       d="m 94.931034,158.08788 c 0,0 2.779613,-0.20847 4.169419,-0.13898 1.389797,0.0695 2.675367,0.13898 3.474497,0.7644 0.79913,0.6254 1.21607,1.11184 0.79913,1.59827 -0.41694,0.48644 -1.84148,0.79913 -2.53638,0.79913 -0.6949,0 -1.771997,-0.0695 -2.432151,-0.0695 -0.660162,0 -0.903372,-0.10423 -1.598275,-0.13898 -0.69491,-0.0347 -1.94572,-0.0695 -2.36266,-0.59066 -0.41695,-0.52118 -0.72965,-1.91098 0.48642,-2.22369 z"
       id="path1041-1" />
    <path
       style="display:inline;fill:#e99734;fill-opacity:1;stroke:#000000;stroke-width:0.264583px;stroke-linecap:butt;stroke-linejoin:miter;stroke-opacity:1"
       d="m 102.81816,151.52107 c 0,0 1.35506,-0.0695 2.81435,-0.0695 1.45929,0 2.98807,-0.17372 3.89144,-0.0695 0.90337,0.10424 1.63302,0.41694 1.94573,0.6949 0.3127,0.27796 0.72964,0.90337 0.0347,1.04235 -0.6949,0.13898 -1.32031,0.0695 -2.18894,0.0695 -0.86862,0 -1.25082,0 -2.11944,0.10424 -0.86863,0.10423 -0.83388,0.13898 -1.98047,0.17372 -1.14659,0.0348 -1.56353,0.45169 -2.22368,0.31271 -0.66015,-0.13898 -1.13867,-0.86294 -0.97285,-1.63302 0.11222,-0.52117 0.78143,-0.6254 0.79916,-0.6254 z"
       id="path1043-5"
       sodipodi:nodetypes="csssssscsscc" />
    <path
       style="display:inline;fill:#e99734;fill-opacity:1;stroke:#000000;stroke-width:0.264583px;stroke-linecap:butt;stroke-linejoin:miter;stroke-opacity:1"
       d="m 159.90426,135.74682 c 0,0 1.3898,0.10424 2.95333,0.13898 1.56352,0.0348 0.97286,-0.0695 2.50164,0.0348 1.52878,0.10424 2.11945,0.24322 2.36266,0.31271 0.24322,0.0695 0.93812,0.34744 0.3822,0.69489 -0.55592,0.34746 -0.62541,0.62542 -1.80674,0.62542 -1.18133,0 -1.45929,-0.10424 -2.39741,0 -0.93812,0.10423 -1.18133,0.24321 -2.29317,0.24321 -1.11184,0 -1.42455,-0.0695 -1.91098,-0.38219 -0.48643,-0.31271 -0.66016,-1.14659 -0.31271,-1.3898 0.34745,-0.24322 0.52118,-0.27797 0.52118,-0.27797 z"
       id="path1045-9" />
    <path
       style="display:inline;fill:#e99734;fill-opacity:1;stroke:#000000;stroke-width:0.264583px;stroke-linecap:butt;stroke-linejoin:miter;stroke-opacity:1"
       d="m 154.98784,144.60682 c 0,0 1.07709,-0.38221 2.76223,-0.31272 1.68513,0.0695 2.10207,0.10424 3.23129,0.1911 1.12921,0.0869 1.32031,0.0695 2.22368,0.2606 0.90337,0.19109 1.47666,0.59065 1.26819,0.86861 -0.20847,0.27797 -1.32031,0.39957 -2.13682,0.41695 -0.81651,0.0174 -2.15419,0 -3.09231,0.17372 -0.93811,0.17373 -2.67536,0.36482 -3.6656,0.20847 -0.99023,-0.15635 -1.40717,-0.46905 -1.40717,-0.83388 0,-0.36482 0.81651,-0.97285 0.81651,-0.97285 z"
       id="path1047-0" />
    <path
       style="display:inline;fill:#e99734;fill-opacity:1;stroke:#000000;stroke-width:0.264583px;stroke-linecap:butt;stroke-linejoin:miter;stroke-opacity:1"
       d="m 152.71204,158.99126 c 0,0 0.93811,-0.24321 2.25842,-0.3127 1.32032,-0.0695 1.35506,-0.13898 2.67537,-0.0695 1.32031,0.0695 1.91098,0.0695 2.15419,0.52117 0.24322,0.45169 0.7644,0.97286 -0.0347,1.32032 -0.79914,0.34745 -2.04996,0.3127 -3.05756,0.41694 -1.00761,0.10423 -2.1542,0.17372 -3.05757,0.17372 -0.90337,0 -1.63301,-0.24321 -1.91097,-0.55593 -0.27797,-0.3127 -0.34746,-1.18133 0.97286,-1.49403 z"
       id="path1049-3" />
    <path
       style="display:inline;fill:#e99734;fill-opacity:1;stroke:#000000;stroke-width:0.264583px;stroke-linecap:butt;stroke-linejoin:miter;stroke-opacity:1"
       d="m 130.02353,159.16498 c 0,0 2.0847,-0.66016 4.09991,-0.66016 2.01521,0 2.0847,-0.0347 4.03043,0 1.94572,0.0348 2.43215,-0.0695 3.4745,-0.13898 1.04235,-0.0695 1.70251,-0.0695 2.91858,0.20849 1.21608,0.27795 1.52878,0.62539 1.49404,1.00759 -0.0347,0.3822 -0.90337,0.93812 -1.80674,1.18134 -0.90337,0.24321 -3.71772,0.38219 -4.62109,0.41693 -0.90338,0.0348 -1.87623,0.17373 -3.64823,0.34745 -1.772,0.17374 -3.26604,0.13898 -4.58635,0.10424 -1.32031,-0.0348 -2.36266,-0.66015 -2.39741,-1.0771 -0.0347,-0.41694 0.31271,-0.97286 1.04236,-1.3898 z"
       id="path1051-0" />
    <path
       style="display:inline;fill:#e99734;fill-opacity:1;stroke:#000000;stroke-width:0.264583px;stroke-linecap:butt;stroke-linejoin:miter;stroke-opacity:1"
       d="m 101.83498,167.22476 c 0,0 -0.83533,0.54052 -0.54051,0.95817 0.29483,0.41766 0.49138,0.56509 1.37583,0.66335 0.88446,0.0983 1.22842,0.0737 2.35857,0.0737 1.13015,0 0.78619,-0.0491 2.01462,-0.0737 1.22842,-0.0246 1.74435,0.0737 2.70252,0.0246 0.95817,-0.0491 1.3267,-0.14741 1.42498,-0.44223 0.0983,-0.29482 0.0491,-0.90904 -0.36853,-0.98274 -0.41766,-0.0737 -1.54781,-0.31939 -2.53055,-0.27025 -0.98274,0.0491 -2.99735,-0.12285 -3.61157,-0.14741 -0.61421,-0.0246 -2.08831,-0.22112 -2.82536,0.19654 z"
       id="path1053-8" />
    <path
       style="display:inline;fill:#e99734;fill-opacity:1;stroke:#000000;stroke-width:0.264583px;stroke-linecap:butt;stroke-linejoin:miter;stroke-opacity:1"
       d="m 118.6619,150.8088 c 0,0 0.64278,-0.29533 2.25843,-0.3822 1.61564,-0.0869 1.82411,-0.19109 3.19654,-0.13898 1.37243,0.0521 1.73725,0 3.49188,0.27796 1.75462,0.27796 3.19654,0.46907 4.20415,0.74702 1.0076,0.27796 1.98046,0.43431 1.92835,1.02499 -0.0521,0.59066 -0.81651,0.78175 -1.92835,0.76438 -1.11185,-0.0174 -2.43216,-0.0348 -3.50925,-0.0695 -1.0771,-0.0348 -1.9631,-0.20847 -3.70035,-0.10423 -1.73725,0.10423 -3.75246,0.10423 -4.46474,0.0521 -0.71227,-0.0521 -1.75462,-0.31269 -2.15419,-0.55591 -0.39957,-0.24321 -0.78176,-1.09447 0.67753,-1.61565 z"
       id="path1055-3" />
    <path
       style="display:inline;fill:#e99734;fill-opacity:1;stroke:#000000;stroke-width:0.264583px;stroke-linecap:butt;stroke-linejoin:miter;stroke-opacity:1"
       d="m 112.23407,158.97388 c 0,0 1.11184,-0.78176 2.34529,-0.886 1.23344,-0.10423 2.69274,-0.15635 3.57873,-0.13898 0.886,0.0174 1.35506,0.0348 2.03259,0.20847 0.67753,0.17373 1.00761,0.71228 0.79914,1.37243 -0.20847,0.66016 -0.34745,0.67753 -0.60804,0.886 -0.26059,0.20847 -1.51141,0.20847 -2.01521,0.29533 -0.50381,0.0869 -1.42455,0.139 -2.2758,0.2606 -0.85126,0.1216 -2.43216,0.15635 -3.00545,-0.0521 -0.57329,-0.20848 -0.62541,-0.15636 -0.97286,-0.53855 -0.34745,-0.3822 -0.41694,-1.05973 0.12161,-1.40718 z"
       id="path1057-4" />
    <path
       style="display:inline;fill:#e99734;fill-opacity:1;stroke:#000000;stroke-width:0.264583px;stroke-linecap:butt;stroke-linejoin:miter;stroke-opacity:1"
       d="m 116.10924,166.26659 c 0,0 1.49868,-0.68792 2.77624,-0.66335 1.27756,0.0246 1.69522,0.29483 3.53786,0.34396 1.84263,0.0491 3.04648,0.22112 4.05379,0.22112 1.00731,0 2.99735,0.29482 4.32405,0.8599 1.3267,0.56507 1.44954,0.9336 1.35126,1.10558 -0.0983,0.17197 -0.24568,0.36853 -1.0073,0.58965 -0.76163,0.22111 -2.57969,0.29482 -3.34131,0.27024 -0.76162,-0.0246 -0.9336,-0.0737 -3.07106,-0.0737 -2.13745,0 -3.21847,0 -4.1275,0.0245 -0.90903,0.0246 -2.35857,0.0983 -3.04648,-0.0491 -0.68792,-0.14741 -1.717,-0.38174 -2.28487,-0.8599 -0.39511,-0.33269 -0.98274,-1.08101 0.83532,-1.76893 z"
       id="path1059-5"
       sodipodi:nodetypes="csssssssscsssc" />
    <path
       style="display:inline;fill:#e99734;fill-opacity:1;stroke:#000000;stroke-width:0.264583px;stroke-linecap:butt;stroke-linejoin:miter;stroke-opacity:1"
       d="m 134.19163,143.17225 c 0,0 0.88446,-0.24568 1.89177,-0.24568 1.0073,0 1.76892,0.27025 2.75166,0.29482 0.98274,0.0246 1.54781,0.27025 2.77624,0.27025 1.22842,0 2.8008,0.24569 3.58699,0.31939 0.78619,0.0737 2.11289,0.41766 2.40771,0.68791 0.29482,0.27026 0.24568,0.7862 -0.0983,0.90904 -0.34396,0.12284 -1.37584,0.22111 -2.23573,0.24569 -0.8599,0.0246 -1.76893,0.12283 -2.99735,0.12283 -1.22843,0 -2.57969,-0.14741 -3.36588,-0.12283 -0.78619,0.0246 -1.59695,0.14741 -2.62883,0.0491 -1.03187,-0.0983 -1.42497,-0.12285 -2.18659,-0.56509 -0.76162,-0.44223 -1.13015,-1.22841 0.0983,-1.96546 z"
       id="path1061-4" />
    <path
       style="display:inline;fill:#e99734;fill-opacity:1;stroke:#000000;stroke-width:0.264583px;stroke-linecap:butt;stroke-linejoin:miter;stroke-opacity:1"
       d="m 143.05291,152.35496 c 1.35506,-0.24321 1.66777,-0.3127 2.71012,-0.20847 1.04235,0.10424 1.07709,0.27795 2.95333,0.3127 1.87623,0.0347 0.62541,0.20847 3.26603,0.0695 2.64062,-0.13898 2.36266,-0.31271 3.4745,-0.3822 1.11185,-0.0695 1.32032,0.0695 0.97287,0.62541 -0.34745,0.55592 -1.04236,0.76439 -2.29318,1.0771 -1.25082,0.3127 -1.94572,0.90337 -3.68297,1.00761 -1.73725,0.10423 -1.87623,0.27795 -3.61349,0.0347 -1.73725,-0.24321 -1.7025,-0.20847 -2.50164,-0.55592 -0.79913,-0.34745 -1.28557,-0.59067 -1.52878,-0.79914 -0.24322,-0.20847 -0.31271,-0.86862 0.24321,-1.18133 z"
       id="path1065-6" />
    <path
       style="fill:#1a1a1a;stroke:#000000;stroke-width:0.264583px;stroke-linecap:butt;stroke-linejoin:miter;stroke-opacity:1"
       d="m 46.718847,104.82439 c -0.867236,1.15631 -1.854212,2.4499 -2.14329,3.89529 -0.289078,1.4454 -0.543087,2.993 -0.398548,4.29385 0.144539,1.30086 3.142111,3.88391 5.759786,5.11149 2.908604,1.364 4.000399,1.41458 11.480606,2.5243 8.769432,1.30098 9.332179,1.20591 18.027214,1.75927 7.213818,0.4591 10.335402,0.12189 22.331325,0.57816 11.40035,0.43361 29.80791,0.60719 36.56846,0.36135 7.1504,-0.26002 20.48492,-0.51013 23.71172,-1.55274 1.9242,-0.62173 4.80809,-1.81364 6.9011,-3.40054 1.31181,-0.99462 3.72994,-3.48914 3.89701,-4.65859 0.43362,-3.03533 -0.92923,-5.22822 -2.92798,-7.29924 -1.3504,-1.39923 -7.45618,-4.74713 -13.5867,-5.56476 -5.87411,-0.78344 -18.47898,-1.469844 -23.39785,-1.667348 -5.52757,-0.22195 -20.48225,-0.0599 -23.08396,-0.0599 -2.6017,0 -18.560898,0.13727 -22.89708,0.281814 -4.33618,0.14454 -16.043868,0.28908 -19.512814,0.578164 -3.468945,0.28908 -11.11849,0.7063 -12.574924,1.01177 -3.220919,0.51057 -6.09114,1.20607 -8.154075,3.80763 z"
       id="path508"
       sodipodi:nodetypes="csssssssssssssssscc" />
  </g>
</svg>
