<?xml version="1.0" encoding="UTF-8" standalone="no"?>
<svg
   xmlns:dc="http://purl.org/dc/elements/1.1/"
   xmlns:cc="http://creativecommons.org/ns#"
   xmlns:rdf="http://www.w3.org/1999/02/22-rdf-syntax-ns#"
   xmlns:svg="http://www.w3.org/2000/svg"
   xmlns="http://www.w3.org/2000/svg"
   xmlns:sodipodi="http://sodipodi.sourceforge.net/DTD/sodipodi-0.dtd"
   xmlns:inkscape="http://www.inkscape.org/namespaces/inkscape"
   width="210mm"
   height="297mm"
   viewBox="0 0 210 297"
   version="1.1"
   id="svg8"
   sodipodi:docname="don_pancho.svg"
   inkscape:version="1.0.1 (3bc2e813f5, 2020-09-07)">
  <defs
     id="defs2" />
  <sodipodi:namedview
     id="base"
     pagecolor="#ffffff"
     bordercolor="#666666"
     borderopacity="1.0"
     inkscape:pageopacity="0.0"
     inkscape:pageshadow="2"
     inkscape:zoom="0.53194247"
     inkscape:cx="306.84634"
     inkscape:cy="331.05659"
     inkscape:document-units="mm"
     inkscape:current-layer="layer6"
     inkscape:document-rotation="0"
     showgrid="false"
     inkscape:window-width="1366"
     inkscape:window-height="745"
     inkscape:window-x="-8"
     inkscape:window-y="-8"
     inkscape:window-maximized="1" />
  <metadata
     id="metadata5">
    <rdf:RDF>
      <cc:Work
         rdf:about="">
        <dc:format>image/svg+xml</dc:format>
        <dc:type
           rdf:resource="http://purl.org/dc/dcmitype/StillImage" />
        <dc:title />
      </cc:Work>
    </rdf:RDF>
  </metadata>
  <g
     inkscape:groupmode="layer"
     id="layer2"
     inkscape:label="Dibujo Digitalizado"
     style="display:inline">
    <g
       inkscape:groupmode="layer"
       id="layer15"
       inkscape:label="Pantalon"
       style="display:inline">
      <path
         style="fill:#ffffff;stroke:#000000;stroke-width:1;stroke-linecap:butt;stroke-linejoin:miter;stroke-miterlimit:4;stroke-dasharray:none;stroke-opacity:1"
         d="m 82.990266,215.03882 c 0,0 -0.160278,11.45945 0.994113,26.37493 0.513418,6.6337 1.286885,16.49872 2.450156,22.8042 3.36676,18.24946 3.468946,30.0642 3.468946,30.0642 l 52.323249,0.28906 c 0,0 0.86724,-26.59524 1.4454,-35.2676 0.57815,-8.67236 2.02355,-17.34472 2.6017,-24.28261 0.57816,-6.93789 0.28908,-23.1263 0.28908,-23.1263 l -1.15631,-2.31263 z"
         id="path1072"
         sodipodi:nodetypes="cssccssccc" />
      <path
         style="fill:none;stroke:#000000;stroke-width:1;stroke-linecap:butt;stroke-linejoin:miter;stroke-miterlimit:4;stroke-dasharray:none;stroke-opacity:1"
         d="m 114.47517,238.20086 c 0,0 1.15632,17.92288 1.4454,25.14985 0.28907,7.22697 1.73447,19.36827 1.73447,19.36827 l 0.28908,11.56317"
         id="path1074" />
    </g>
    <g
       inkscape:groupmode="layer"
       id="layer12"
       inkscape:label="Camisa"
       style="display:inline">
      <path
         style="fill:#ffffff;stroke:#000000;stroke-width:1;stroke-linecap:butt;stroke-linejoin:miter;stroke-miterlimit:4;stroke-dasharray:none;stroke-opacity:1"
         d="m 85.061411,118.01639 c 0,0 -7.588314,0.50588 -13.369888,4.55299 -5.781574,4.0471 -11.630283,10.58644 -13.093213,13.89331 -2.108388,4.7659 -3.305084,14.71299 -3.319269,16.8987 -0.0197,3.03613 1.662338,19.61716 3.114861,25.21699 1.592866,6.14089 8.74463,18.28422 10.334564,20.88593 1.589932,2.60171 7.877393,8.81691 7.443776,14.16486 -0.433618,5.34796 -1.300853,12.57493 3.324404,12.86401 4.625261,0.28907 16.332949,-2.09583 16.332949,-2.09583 l 9.539595,-2.96305 c 0,0 3.15645,-1.62911 4.19164,-6.28747 0.86724,-3.90255 3.83029,2.38491 3.83029,2.38491 0,0 1.58994,2.81851 6.57655,3.75802 4.97952,0.93817 14.45393,0.50589 19.36827,0.14454 4.95382,-0.36426 12.28585,-1.30086 12.71946,-3.61349 0.43363,-2.31263 -3.46894,-7.80512 -3.3244,-9.82867 0.14454,-2.02355 1.58993,-7.51605 3.61349,-12.28585 2.02355,-4.7698 6.35972,-15.32117 7.3715,-21.10274 1.01178,-5.78158 2.16809,-18.12409 0.28908,-27.02886 -1.42651,-6.76036 -8.09103,-19.36511 -11.41861,-22.98176 -2.77151,-3.01228 -10.69592,-9.68414 -16.54976,-8.8169 v 0 l -12.864,10.55137 -10.04548,-8.67236 -8.6001,8.96144 z"
         id="path880"
         sodipodi:nodetypes="csssssssccscsssssssscccccc" />
      <path
         style="fill:none;stroke:#000000;stroke-width:1;stroke-linecap:round;stroke-linejoin:miter;stroke-miterlimit:4;stroke-dasharray:none;stroke-opacity:1"
         d="m 72.703298,153.5008 c 0,0 -1.734474,25.87255 -0.578157,34.97852 1.156313,9.10598 5.203417,19.36828 4.047101,23.99354"
         id="path896" />
      <path
         style="fill:none;stroke:#000000;stroke-width:1;stroke-linecap:round;stroke-linejoin:miter;stroke-miterlimit:4;stroke-dasharray:none;stroke-opacity:1"
         d="m 143.67212,148.15284 c 0,0 4.91434,20.23551 5.4925,26.01709 0.57816,5.78157 0.28908,21.10274 0.28908,21.10274 0,0 -0.7227,8.09421 -0.43362,9.25052"
         id="path898" />
      <path
         style="fill:none;stroke:#000000;stroke-width:1;stroke-linecap:round;stroke-linejoin:miter;stroke-miterlimit:4;stroke-dasharray:none;stroke-opacity:1"
         d="m 109.12722,117.65504 c 0,0 0.23188,18.89052 0.43628,23.59194 0.20441,4.70142 0.40882,22.48505 0.20441,27.18647 -0.20441,4.70141 -2.2485,18.19244 -1.63527,21.463 0.61323,3.27055 1.83968,24.32473 1.83968,24.32473"
         id="path900" />
      <path
         style="fill:#ffffff;stroke:#000000;stroke-width:1;stroke-linecap:round;stroke-linejoin:round;stroke-opacity:1;stroke-miterlimit:4;stroke-dasharray:none;fill-opacity:1"
         d="m 83.428117,146.11195 c 0,0 0.450963,5.41155 1.803852,6.61412 1.352889,1.20257 3.307061,1.80385 4.659947,1.80385 1.352889,0 3.457382,-0.45096 4.810271,-3.00642 1.352889,-2.55545 -0.751605,-6.91476 -0.751605,-6.91476 0,0 -0.15032,3.75802 -2.856097,4.65995 -2.705778,0.90192 -6.012836,-0.90193 -7.666368,-3.15674 z"
         id="path59" />
      <path
         style="display:inline;fill:#ffffff;stroke:#000000;stroke-width:1;stroke-linecap:round;stroke-linejoin:round;stroke-opacity:1;stroke-miterlimit:4;stroke-dasharray:none"
         d="m 124.33231,142.16622 c 0,0 0.45096,5.41155 1.80385,6.61412 1.35289,1.20257 3.30706,1.80385 4.65995,1.80385 1.35289,0 3.45738,-0.45096 4.81027,-3.00642 1.35289,-2.55545 -0.75161,-6.91476 -0.75161,-6.91476 0,0 -0.15032,3.75802 -2.85609,4.65995 -2.70578,0.90192 -6.01284,-0.90193 -7.66637,-3.15674 z"
         id="path59-2" />
      <path
         style="fill:none;stroke:#000000;stroke-width:1;stroke-linecap:round;stroke-linejoin:round;stroke-opacity:1;stroke-miterlimit:4;stroke-dasharray:none"
         d="M 83.428117,146.11195 93.95058,144.60874"
         id="path899" />
      <path
         style="fill:none;stroke:#000000;stroke-width:1;stroke-linecap:round;stroke-linejoin:round;stroke-opacity:1;stroke-miterlimit:4;stroke-dasharray:none"
         d="m 124.33231,142.16622 10.52246,-1.50321"
         id="path901" />
    </g>
    <g
       inkscape:groupmode="layer"
       id="layer14"
       inkscape:label="Botones"
       style="display:inline">
      <ellipse
         style="display:inline;opacity:0.997;fill:#ffffff;stroke:#000000;stroke-width:0.889762;stroke-linecap:round;stroke-linejoin:round;stroke-miterlimit:4;stroke-dasharray:none"
         id="path944-9-1-6-6-1"
         cx="113.89702"
         cy="181.83052"
         rx="2.5845575"
         ry="2.3677485" />
      <ellipse
         style="display:inline;opacity:0.997;fill:#ffffff;stroke:#000000;stroke-width:0.889762;stroke-linecap:round;stroke-linejoin:round;stroke-miterlimit:4;stroke-dasharray:none"
         id="path944-9-1-6"
         cx="114.1861"
         cy="171.8573"
         rx="2.5845575"
         ry="2.3677485" />
      <ellipse
         style="display:inline;opacity:0.997;fill:#ffffff;stroke:#000000;stroke-width:0.889762;stroke-linecap:round;stroke-linejoin:round;stroke-miterlimit:4;stroke-dasharray:none"
         id="path944-9-1-6-6"
         cx="113.60793"
         cy="191.51466"
         rx="2.5845575"
         ry="2.3677485" />
      <ellipse
         style="display:inline;opacity:0.997;fill:#ffffff;stroke:#000000;stroke-width:0.889762;stroke-linecap:round;stroke-linejoin:round;stroke-miterlimit:4;stroke-dasharray:none;fill-opacity:1"
         id="path944-9"
         cx="114.1861"
         cy="149.45369"
         rx="2.5845575"
         ry="2.3677485" />
      <ellipse
         style="display:inline;opacity:0.997;fill:#ffffff;stroke:#000000;stroke-width:0.889762;stroke-linecap:round;stroke-linejoin:round;stroke-miterlimit:4;stroke-dasharray:none;fill-opacity:1"
         id="path944"
         cx="114.42024"
         cy="140.5732"
         rx="2.5845575"
         ry="2.3677485" />
      <ellipse
         style="display:inline;opacity:0.997;fill:#ffffff;stroke:#000000;stroke-width:0.889762;stroke-linecap:round;stroke-linejoin:round;stroke-miterlimit:4;stroke-dasharray:none;fill-opacity:1"
         id="path944-9-1"
         cx="114.61971"
         cy="160.58322"
         rx="2.5845575"
         ry="2.3677485" />
      <ellipse
         style="display:none;opacity:0.997;fill:none;stroke:#000000;stroke-width:0.889762;stroke-linecap:round;stroke-linejoin:round;stroke-miterlimit:4;stroke-dasharray:none"
         id="path944-9-1-6-6-0"
         cx="114.1861"
         cy="201.34332"
         rx="2.5845575"
         ry="2.3677485" />
    </g>
    <g
       inkscape:groupmode="layer"
       id="layer13"
       inkscape:label="Bolsas"
       style="display:inline">
      <path
         style="display:inline;fill:#ffffff;stroke:#000000;stroke-width:1;stroke-linecap:butt;stroke-linejoin:round;stroke-miterlimit:4;stroke-dasharray:none;stroke-opacity:1"
         d="m 119.82313,179.51788 h 18.93466 v 17.77835 l -8.09421,6.35972 -10.55137,-5.34795 z"
         id="path908"
         sodipodi:nodetypes="cccccc" />
      <path
         style="display:inline;fill:#ffffff;stroke:#000000;stroke-width:1;stroke-linecap:butt;stroke-linejoin:round;stroke-miterlimit:4;stroke-dasharray:none;stroke-opacity:1"
         d="m 81.44793,185.37174 18.79012,-3.75802 3.90257,18.3565 -7.660599,8.0942 -11.563145,-3.90256 z"
         id="path908-2"
         sodipodi:nodetypes="cccccc" />
    </g>
    <g
       inkscape:groupmode="layer"
       id="layer6"
       inkscape:label="Cara"
       style="display:inline">
      <path
         style="fill:#ffccaa;fill-opacity:1;stroke:#000000;stroke-width:1;stroke-linecap:butt;stroke-linejoin:miter;stroke-miterlimit:4;stroke-dasharray:none;stroke-opacity:1"
         d="m 75.188259,81.859307 c 0,0 -0.277956,16.260681 2.501646,19.596203 2.706005,3.24721 7.782888,6.94901 7.782888,6.94901 l 6.810027,4.30838 c 5.545739,2.38811 10.42351,3.75247 15.28782,3.33553 4.8643,-0.41694 16.67762,-4.16941 17.5115,-4.72533 0.83388,-0.55592 8.19983,-4.1694 10.14555,-10.56249 1.94572,-6.393087 2.22368,-15.565775 2.22368,-15.565775 v 0 l 1.80674,-12.508214 -7.22696,-19.596203 -10.70148,-5.837166 -19.17926,1.25082 -11.39637,1.528784 -11.813312,5.281245 -2.779604,13.898014 z"
         id="path883"
         sodipodi:nodetypes="csccssscccccccccc" />
      <path
         style="fill:#ffffff;stroke:#000000;stroke-width:1;stroke-linecap:butt;stroke-linejoin:miter;stroke-miterlimit:4;stroke-dasharray:none;stroke-opacity:1"
         d="m 85.472793,108.40452 -0.41138,9.61187 15.465707,8.60009 8.6001,-8.96144 10.04548,8.67236 12.864,-10.55137 -0.14453,-9.25052 c 0,0 -4.26392,3.75802 -6.14293,4.40845 -1.87901,0.65042 -5.78157,2.45717 -7.08243,2.67398 -1.30085,0.21681 -7.87739,1.73447 -7.87739,1.73447 l -8.45555,0.0723 c 0,0 -2.09026,0.24461 -6.070657,-1.22859 -3.980395,-1.47319 -6.693289,-2.81852 -10.79042,-5.78157 z"
         id="path877" />
    </g>
    <g
       inkscape:groupmode="layer"
       id="layer3"
       inkscape:label="Ojos"
       style="display:inline">
      <ellipse
         style="opacity:0.997;fill:#000000;fill-opacity:1;stroke:#000000;stroke-width:1"
         id="path40"
         cx="95.965797"
         cy="82.76268"
         rx="2.4321527"
         ry="4.2388945" />
      <ellipse
         style="opacity:0.997;fill:#000000;fill-opacity:1;stroke:#000000;stroke-width:1"
         id="path42"
         cx="118.48058"
         cy="84.082985"
         rx="2.5711329"
         ry="4.5863447" />
    </g>
    <g
       inkscape:groupmode="layer"
       id="layer4"
       inkscape:label="Cejas">
      <path
         style="fill:#000000;fill-opacity:1;stroke:#000000;stroke-width:0.264583px;stroke-linecap:butt;stroke-linejoin:miter;stroke-opacity:1"
         d="m 84.810297,74.196725 c 0,0 -0.884465,4.324048 2.35857,2.456847 3.243038,-1.867205 6.092976,-4.520597 9.729108,-4.422323 3.636135,0.09827 2.456846,-2.849941 -0.786191,-2.06375 -3.243035,0.786191 -9.139463,1.965476 -11.301487,4.029226 z"
         id="path874" />
      <path
         style="fill:#000000;fill-opacity:1;stroke:#000000;stroke-width:0.264583px;stroke-linecap:butt;stroke-linejoin:miter;stroke-opacity:1"
         d="m 114.48899,69.086488 c 0,0 11.89113,-1.375833 13.26696,0.196546 1.37583,1.572382 3.43958,4.1275 -1.76893,3.930954 -5.20851,-0.196548 -6.09297,-2.06375 -8.45155,-2.260298 -2.35857,-0.196548 -4.81541,0 -3.04648,-1.867202 z"
         id="path876" />
    </g>
    <g
       inkscape:groupmode="layer"
       id="layer5"
       inkscape:label="Cabello"
       style="display:inline">
      <path
         style="fill:#000000;fill-opacity:1;stroke:#000000;stroke-width:0.264583px;stroke-linecap:butt;stroke-linejoin:miter;stroke-opacity:1"
         d="m 73.103559,55.592061 c 0,0 -3.891444,9.45065 -0.97286,17.650478 2.918582,8.199829 3.057562,8.61677 3.057562,8.61677 0,0 8.060849,-16.121697 8.894731,-18.901301 0.833882,-2.779601 0.694902,-4.169404 0.694902,-4.169404 0,0 5.142264,5.559208 3.613483,11.813314 -1.528781,6.254107 10.284531,-13.342095 10.284531,-13.342095 0,0 0.833882,-1.667762 0.833882,-0.138981 0,1.528781 0.277958,5.003287 -1.111842,7.087989 -1.389801,2.084702 0,1.528781 0,1.528781 0,0 3.474502,-1.667761 5.142262,-3.613483 1.66777,-1.945722 4.72533,-5.281247 4.72533,-5.281247 l 0.55592,-1.667762 c 0,0 0.83388,-0.972859 0.6949,0.972863 -0.13898,1.945722 -2.36266,7.504927 -2.36266,7.504927 0,0 -0.13898,1.389801 1.11184,0 1.25082,-1.389801 4.03042,-5.142264 4.03042,-5.142264 l 3.47451,-4.725326 1.80674,-4.030425 c 0,0 2.0847,4.308385 1.66776,6.671048 -0.41694,2.362661 -0.97286,3.474503 -0.97286,3.474503 0,0 -0.27796,1.11184 2.22368,-0.972862 2.50164,-2.084702 5.42023,-4.586343 5.42023,-4.586343 l 2.50164,-1.528784 c 0,0 2.22368,-0.833879 1.80674,3.752464 -0.41694,4.586346 0.83388,13.481076 4.58635,15.704759 3.75246,2.223682 2.91858,7.087986 2.91858,7.087986 l -0.27796,5.837169 c 0,0 5.14227,-7.22697 5.97615,-10.840453 0.83388,-3.613483 1.52878,-10.423511 1.11184,-13.203115 -0.41694,-2.779602 -2.50164,-12.369234 -5.00329,-13.759035 -2.50164,-1.3898 -7.08798,-8.199829 -19.04028,-8.477789 -11.95229,-0.277961 -23.765604,-1.528781 -29.60277,1.945722 -5.837166,3.474503 -11.535354,2.779604 -17.789461,14.731896 z"
         id="path879" />
    </g>
    <g
       inkscape:groupmode="layer"
       id="layer9"
       inkscape:label="Boca"
       style="display:inline">
      <path
         style="fill:#e9afaf;stroke:#000000;stroke-width:1;stroke-linecap:butt;stroke-linejoin:miter;stroke-miterlimit:4;stroke-dasharray:none;stroke-opacity:1"
         d="m 100.03096,101.87245 c 0,0 -0.52117,2.57113 0.97287,3.64823 1.49403,1.0771 4.93534,2.33482 4.93534,2.33482 0,0 3.92464,0.58376 6.35679,-1.15349 2.43216,-1.73725 2.98808,-3.09231 3.23129,-3.82195 0.24322,-0.72965 -0.17372,-1.70251 -0.17372,-1.70251 l -7.64391,-1.459289 c 0,0 -7.05324,0.625409 -7.67866,2.154189 z"
         id="path882" />
      <path
         style="fill:none;stroke:#000000;stroke-width:1;stroke-linecap:butt;stroke-linejoin:miter;stroke-miterlimit:4;stroke-dasharray:none;stroke-opacity:1"
         d="m 100.03096,101.87245 c 0,0 8.4083,4.13466 15.4268,0.79914"
         id="path884" />
    </g>
    <g
       inkscape:groupmode="layer"
       id="layer11"
       inkscape:label="Bigote"
       style="display:inline">
      <path
         style="fill:#000000;stroke:#000000;stroke-width:0.264583px;stroke-linecap:butt;stroke-linejoin:miter;stroke-opacity:1"
         d="m 105.93917,107.8555 -0.0491,3.24304 4.02923,-0.19655 0.0491,-3.24303 z"
         id="path864"
         sodipodi:nodetypes="ccccc" />
      <path
         style="fill:#000000;stroke:#000000;stroke-width:0.264583px;stroke-linecap:butt;stroke-linejoin:miter;stroke-opacity:1"
         d="m 95.374731,106.97104 c 0,0 0.835327,-1.27756 2.260299,-0.98274 1.424969,0.29482 1.179285,1.7198 1.031875,2.84994 -0.147413,1.13015 0.638778,2.60426 1.719795,3.24304 1.08101,0.63878 1.22842,1.71979 4.52059,1.96548 3.29217,0.24568 4.91369,-0.0491 6.58435,-0.34396 1.67065,-0.29483 3.78354,-1.37584 4.02922,-2.16203 0.24569,-0.78619 0,-1.67065 -0.0491,-2.2603 -0.0491,-0.58964 0.14742,-2.84994 1.13015,-3.19389 0.98274,-0.34396 2.80081,-0.0491 3.09563,1.08101 0.29482,1.13015 0.54051,2.55512 0.29482,3.78354 -0.24568,1.22842 -0.0983,1.81807 -1.81806,2.75167 -1.7198,0.9336 -9.92566,2.65339 -13.80748,2.16202 -3.88181,-0.49137 -6.879163,-1.03187 -7.911038,-2.70253 -1.031875,-1.67065 -1.572379,-3.34131 -1.081011,-6.19125 z"
         id="path872" />
      <path
         style="fill:#000000;stroke:#000000;stroke-width:0.264583px;stroke-linecap:butt;stroke-linejoin:miter;stroke-opacity:1"
         d="m 94.293721,99.797054 c 0,0 -1.081014,5.061096 2.260295,3.881816 3.341309,-1.17929 4.373184,-2.50598 7.321404,-2.80081 2.94821,-0.29482 3.43958,-0.83532 6.14211,-0.34395 2.70253,0.49136 4.07836,0.39309 5.40506,1.42497 1.32669,1.03187 3.14476,1.37583 3.83268,1.13014 0.68791,-0.24568 1.81806,-1.62151 1.17928,-2.94821 -0.63878,-1.326695 -0.88446,-1.031873 -3.09562,-2.162022 -2.21116,-1.130149 -2.55512,-1.375833 -2.55512,-1.375833 0,0 -2.21116,-1.523246 -4.02923,0.245684 -1.81806,1.768927 -5.58135,-1.056772 -5.58135,-1.056772 0,0 -8.275255,0.221445 -10.879509,4.004987 z"
         id="path875" />
    </g>
    <g
       inkscape:groupmode="layer"
       id="layer10"
       inkscape:label="Orejas"
       style="display:inline">
      <path
         style="fill:#ffccaa;stroke:#000000;stroke-width:1;stroke-linecap:butt;stroke-linejoin:miter;stroke-miterlimit:4;stroke-dasharray:none;stroke-opacity:1"
         d="m 138.41866,82.648273 c 0,0 7.76363,-8.009316 8.59896,-1.474107 0.83533,6.535208 -3.587,11.694583 -3.587,11.694583 0,0 -2.30943,3.095625 -4.61887,3.488722 -2.30943,0.393094 -2.50598,0 -2.50598,0 0,0 1.13015,-13.512649 2.11289,-13.709198 z"
         id="path851" />
      <path
         style="fill:none;stroke:#000000;stroke-width:1;stroke-linecap:round;stroke-linejoin:miter;stroke-miterlimit:4;stroke-dasharray:none;stroke-opacity:1"
         d="m 137.5342,87.218006 c 0,0 5.61352,-5.135532 6.6454,-4.988119"
         id="path855"
         sodipodi:nodetypes="cc" />
      <path
         style="fill:none;stroke:#000000;stroke-width:1;stroke-linecap:round;stroke-linejoin:miter;stroke-miterlimit:4;stroke-dasharray:none;stroke-opacity:1"
         d="m 142.90634,83.38809 c 0,0 1.21608,4.099915 -0.90337,6.393088 -2.11945,2.293173 -5.00329,3.09231 -5.00329,3.09231"
         id="path857" />
    </g>
    <g
       inkscape:groupmode="layer"
       id="layer7"
       inkscape:label="Sombrero">
      <path
         style="fill:#fefefe;fill-opacity:1;stroke:#000000;stroke-width:1;stroke-linecap:butt;stroke-linejoin:miter;stroke-miterlimit:4;stroke-dasharray:none;stroke-opacity:1"
         d="m 56.7854,50.050665 c 0,0 12.595908,-4.058523 16.625134,-5.925725 4.029226,-1.867201 5.798156,-3.930951 6.387798,-11.203215 0.589643,-7.272261 1.375834,-12.775594 2.162024,-15.134166 0.786191,-2.358571 3.832678,-10.4170233 8.058452,-11.3997615 4.225774,-0.9827382 6.19125,-1.0810118 7.468809,-1.0810118 1.277559,0 4.225773,0.4913691 6.584343,0.3930951 2.35857,-0.098274 7.07572,0.4913691 10.61357,0.4913691 3.53786,0 7.66536,-0.2948215 10.71185,0.098274 3.04649,0.3930952 5.9947,3.537857 6.48607,5.5033331 0.49137,1.965476 3.97166,23.841028 6.13369,33.864956 0.52013,0.765197 -62.319785,18.040931 -78.641452,6.966094 C 58.29953,51.893695 57.425602,51.040234 56.7854,50.050665 Z"
         id="path886"
         sodipodi:nodetypes="cssssssssscsc" />
      <path
         style="fill:#000000;fill-opacity:1;stroke:#000000;stroke-width:0.264583px;stroke-linecap:butt;stroke-linejoin:miter;stroke-opacity:1"
         d="m 79.010218,37.872093 c 0,0 -1.042353,3.752463 -2.779604,4.586343 -1.737252,0.833882 -3.405013,2.015212 -3.405013,2.015212 l -1.528784,0.555921 c 0,0 21.611416,2.223683 27.865523,2.293173 6.25411,0.06949 26.89266,0.13898 26.89266,0.13898 l 7.7134,-0.34745 4.24874,-1.45646 -1.12169,-4.867138 c 0,0 -6.46258,-1.042349 -15.28782,-1.667761 -8.82524,-0.625411 -25.363875,-1.25082 -29.116338,-1.11184 -3.752464,0.138978 -12.647195,0.138978 -13.481074,-0.13898 z"
         id="path892" />
      <path
         style="opacity:1;fill:#fefefe;fill-opacity:1;stroke:#000000;stroke-width:0.9;stroke-linecap:butt;stroke-linejoin:miter;stroke-miterlimit:4;stroke-dasharray:none;stroke-opacity:1"
         d="m 56.50744,49.824822 c 0,0 -0.359457,7.573981 4.365866,10.284095 4.725326,2.710111 8.75575,4.794813 10.423511,4.377875 1.667764,-0.416941 1.841487,-8.182458 1.841487,-8.182458 0,0 -12.484197,-0.29446 -16.630864,-6.479512"
         id="path918"
         sodipodi:nodetypes="csscc" />
      <path
         style="fill:#fefefe;fill-opacity:1;stroke:#000000;stroke-width:1;stroke-linecap:butt;stroke-linejoin:miter;stroke-miterlimit:4;stroke-dasharray:none;stroke-opacity:1"
         d="m 138.01714,45.657812 c 0,0 6.52222,-3.894275 12.77633,-2.365494 6.2541,1.528781 10.97943,4.447365 7.85237,9.7981 -3.12705,5.350737 -10.35402,11.257394 -15.3573,12.508214 -5.00329,1.25082 -5.2714,-19.94082 -5.2714,-19.94082 z"
         id="path920" />
    </g>
    <g
       inkscape:groupmode="layer"
       id="layer8"
       inkscape:label="Nariz">
      <path
         style="fill:none;stroke:#000000;stroke-width:1;stroke-linecap:round;stroke-linejoin:miter;stroke-miterlimit:4;stroke-dasharray:none;stroke-opacity:1"
         d="m 102.00821,91.787738 c 0,0 -2.359439,0.773044 -2.324694,2.093354 0.03475,1.320313 2.049954,2.084703 2.049954,2.084703 0,0 0.48643,0.382196 1.73725,0.13898 1.25082,-0.243216 1.70251,-0.312706 1.70251,-0.312706 0,0 0.27796,-0.173723 0.34745,0.451686 0.0695,0.625412 2.72792,1.342136 4.15289,0.801632 1.42497,-0.540507 1.96548,-0.933603 2.55512,-1.474107 0.58964,-0.540507 1.67066,0.442232 1.67066,0.442232 0,0 1.4741,0.638778 2.01461,-0.245687 0.5405,-0.884462 0.19655,-2.555118 -0.63878,-3.046486 -0.83533,-0.491368 -2.75167,-1.277562 -3.04649,-1.424971"
         id="path924"
         sodipodi:nodetypes="cscscssscssc" />
      <path
         style="fill:#ffccaa;stroke:#000000;stroke-width:1;stroke-linecap:butt;stroke-linejoin:miter;stroke-miterlimit:4;stroke-dasharray:none;stroke-opacity:1"
         d="m 75.188259,81.859307 c 0,0 -7.018494,-4.238892 -9.103196,-0.277958 -2.084702,3.960934 -0.903372,5.072777 0.06949,6.462577 0.97286,1.389804 3.335523,3.474503 3.752464,5.072777 0.416941,1.598271 3.891444,4.169405 4.655836,4.169405 0.764389,0 1.667761,0.06949 1.667761,0.06949 z"
         id="path859" />
      <path
         style="fill:none;stroke:#000000;stroke-width:1;stroke-linecap:round;stroke-linejoin:miter;stroke-miterlimit:4;stroke-dasharray:none;stroke-opacity:1"
         d="m 68.939076,86.775773 c 0,0 -2.555119,-1.91634 -0.09827,-2.997351 2.456846,-1.081013 2.800804,0.393095 2.800804,0.393095 0,0 -0.343958,1.572381 10e-7,3.734405 0.343958,2.162024 0.638778,3.390445 0.884465,3.734403"
         id="path861"
         sodipodi:nodetypes="cscsc" />
    </g>
  </g>
</svg>
