<?xml version="1.0" encoding="UTF-8" standalone="no"?>
<svg
   xmlns:dc="http://purl.org/dc/elements/1.1/"
   xmlns:cc="http://creativecommons.org/ns#"
   xmlns:rdf="http://www.w3.org/1999/02/22-rdf-syntax-ns#"
   xmlns:svg="http://www.w3.org/2000/svg"
   xmlns="http://www.w3.org/2000/svg"
   xmlns:sodipodi="http://sodipodi.sourceforge.net/DTD/sodipodi-0.dtd"
   xmlns:inkscape="http://www.inkscape.org/namespaces/inkscape"
   width="210mm"
   height="297mm"
   viewBox="0 0 210 297"
   version="1.1"
   id="svg8"
   inkscape:version="1.0.1 (3bc2e813f5, 2020-09-07)"
   sodipodi:docname="huaya.svg">
  <defs
     id="defs2" />
  <sodipodi:namedview
     id="base"
     pagecolor="#ffffff"
     bordercolor="#666666"
     borderopacity="1.0"
     inkscape:pageopacity="0.0"
     inkscape:pageshadow="2"
     inkscape:zoom="0.41840637"
     inkscape:cx="449.85422"
     inkscape:cy="563.18552"
     inkscape:document-units="mm"
     inkscape:current-layer="layer2"
     inkscape:document-rotation="0"
     showgrid="false"
     inkscape:window-width="1366"
     inkscape:window-height="745"
     inkscape:window-x="-8"
     inkscape:window-y="-8"
     inkscape:window-maximized="1" />
  <metadata
     id="metadata5">
    <rdf:RDF>
      <cc:Work
         rdf:about="">
        <dc:format>image/svg+xml</dc:format>
        <dc:type
           rdf:resource="http://purl.org/dc/dcmitype/StillImage" />
        <dc:title />
      </cc:Work>
    </rdf:RDF>
  </metadata>
  <g
     inkscape:groupmode="layer"
     id="layer2"
     inkscape:label="Dibijo digitalizado"
     style="display:inline;opacity:1"
     sodipodi:insensitive="true">
    <g
       inkscape:groupmode="layer"
       id="layer3"
       inkscape:label="Circulos">
      <g
         inkscape:groupmode="layer"
         id="layer12"
         inkscape:label="Circulo 8">
        <ellipse
           style="opacity:0.997;fill:#4ca014;fill-opacity:1;stroke:#000000;stroke-width:0.923645;stroke-miterlimit:4;stroke-dasharray:none;stroke-opacity:1"
           id="path1008"
           cx="58.903698"
           cy="163.41026"
           rx="30.0016"
           ry="31.901716" />
        <ellipse
           style="opacity:0.997;fill:#4ca014;fill-opacity:1;stroke:#000000;stroke-width:0.986892;stroke-miterlimit:4;stroke-dasharray:none;stroke-opacity:1"
           id="path1010"
           cx="58.319046"
           cy="209.01312"
           rx="19.738562"
           ry="21.346355" />
      </g>
      <g
         inkscape:groupmode="layer"
         id="layer11"
         inkscape:label="Circulo 7"
         style="display:inline">
        <ellipse
           style="opacity:0.997;fill:#4ca014;fill-opacity:1;stroke:#000000;stroke-width:1.0291;stroke-miterlimit:4;stroke-dasharray:none;stroke-opacity:1"
           id="path1005"
           cx="89.597923"
           cy="143.53207"
           rx="33.164459"
           ry="33.018291" />
      </g>
      <g
         inkscape:groupmode="layer"
         id="layer10"
         inkscape:label="Circulo 6"
         style="display:inline">
        <ellipse
           style="opacity:0.997;fill:#4ca014;fill-opacity:1;stroke:#000000;stroke-width:1.10392;stroke-miterlimit:4;stroke-dasharray:none;stroke-opacity:1"
           id="path1002"
           cx="142.36278"
           cy="132.42371"
           rx="24.503426"
           ry="28.011341" />
      </g>
      <g
         inkscape:groupmode="layer"
         id="layer9"
         inkscape:label="Circulo 5"
         style="display:inline">
        <ellipse
           style="opacity:0.997;fill:#4ca014;fill-opacity:1;stroke:#000000;stroke-width:1;stroke-miterlimit:4;stroke-dasharray:none;stroke-opacity:1"
           id="path997"
           cx="154.93282"
           cy="144.55522"
           rx="28.063299"
           ry="28.501789" />
      </g>
      <g
         inkscape:groupmode="layer"
         id="layer8"
         inkscape:label="Circulo 4"
         style="display:inline">
        <ellipse
           style="opacity:0.997;fill:#4ca014;fill-opacity:1;stroke:#000000;stroke-width:1;stroke-miterlimit:4;stroke-dasharray:none;stroke-opacity:1"
           id="path994"
           cx="159.17154"
           cy="196.58928"
           rx="24.403732"
           ry="27.911644" />
      </g>
      <g
         inkscape:groupmode="layer"
         id="layer7"
         inkscape:label="Circulo 3"
         style="display:inline">
        <ellipse
           style="opacity:0.997;fill:#4ca014;fill-opacity:1;stroke:#000000;stroke-width:1;stroke-miterlimit:4;stroke-dasharray:none;stroke-opacity:1"
           id="path977"
           cx="126.54577"
           cy="188.17137"
           rx="29.291351"
           ry="32.778488" />
      </g>
      <g
         inkscape:groupmode="layer"
         id="layer6"
         inkscape:label="Circulo 2"
         style="display:inline">
        <ellipse
           style="opacity:0.997;fill:#4ca014;fill-opacity:1;stroke:#000000;stroke-width:1;stroke-miterlimit:4;stroke-dasharray:none;stroke-opacity:1"
           id="path972"
           cx="86.83844"
           cy="215.06262"
           rx="30.603441"
           ry="31.732979" />
      </g>
      <g
         inkscape:groupmode="layer"
         id="layer4"
         inkscape:label="Circulo 1"
         style="display:inline;mix-blend-mode:normal">
        <ellipse
           style="opacity:0.997;fill:#4ca014;fill-opacity:1;stroke:#000000;stroke-width:1;stroke-miterlimit:4;stroke-dasharray:none;stroke-opacity:1"
           id="path967"
           cx="128.46759"
           cy="245.70621"
           rx="28.422039"
           ry="33.212765" />
      </g>
    </g>
    <g
       inkscape:groupmode="layer"
       id="layer14"
       inkscape:label="Espacio 2"
       sodipodi:insensitive="true">
      <path
         style="fill:#000000;fill-opacity:1;stroke:#000000;stroke-width:0.264583px;stroke-linecap:butt;stroke-linejoin:miter;stroke-opacity:1"
         d="m 121.07779,155.44437 c 0,0 1.49817,-4.51278 1.55299,-5.40803 0.0548,-0.89525 0,0.0365 0,0.0365 0,0 2.50304,3.30694 4.25699,4.84165 1.75396,1.53471 -0.0365,0 -0.0365,0 0,0 -2.90499,-0.0365 -5.77344,0.52984 z"
         id="path1016" />
    </g>
    <g
       inkscape:groupmode="layer"
       id="layer13"
       inkscape:label="Espacio 1"
       sodipodi:insensitive="true">
      <path
         style="fill:#000000;fill-opacity:1;stroke:#000000;stroke-width:0.264583px;stroke-linecap:butt;stroke-linejoin:miter;stroke-opacity:1"
         d="m 86.565048,176.93034 c 0,0 -2.082821,4.64067 -3.398289,6.06576 -1.315466,1.42509 0,0.0365 0,0.0365 0,0 6.650418,-0.9866 13.739325,1.53472 7.088906,2.52131 -0.03654,0 -0.03654,0 0,0 0.950061,-6.76004 2.046283,-8.80633 1.096223,-2.04628 0,0 0,0 0,0 -5.408031,1.82704 -12.350777,1.16931 z"
         id="path1013" />
    </g>
    <g
       inkscape:groupmode="layer"
       id="layer5"
       inkscape:label="Palito xd"
       style="display:inline">
      <path
         style="fill:#7c3100;fill-opacity:1;stroke:#000000;stroke-width:1;stroke-linecap:butt;stroke-linejoin:miter;stroke-miterlimit:4;stroke-dasharray:none;stroke-opacity:1"
         d="m 121.89996,115.98036 c 0,0 -4.31181,-5.84652 -1.1693,-9.93909 3.1425,-4.09256 0.43849,-5.99268 -0.43849,-7.381231 -0.87698,-1.388547 -0.65774,-11.181472 -0.65774,-11.181472 0,0 1.31547,-10.450655 -0.51157,-12.423857 -1.82703,-1.973199 -3.1425,-7.161987 -1.38855,-11.546876 1.75396,-4.384892 1.68088,-8.769782 -1.02314,-9.427517 -2.70401,-0.657733 -5.1157,-9.354431 -5.48111,-10.596819 -0.36541,-1.242386 -0.95006,-4.019481 -3.65408,-10.450656 -2.4843,-3.926619 -3.83796,-9.728205 -6.29017,-9.416713 -3.824059,0.620118 -7.906497,0.361735 -8.319909,4.134114 -0.413411,3.772382 1.860352,4.237469 1.860352,4.237469 0,0 -0.31006,2.687174 -0.930177,4.392496 -0.620118,1.705321 2.118735,2.222087 4.030763,0.568441 1.912027,-1.653646 6.407881,11.782227 6.407881,11.782227 0,0 2.42879,5.581054 3.25561,9.921875 0.82682,4.34082 0.82682,9.456787 1.34359,13.125812 0.51676,3.669027 0.11569,6.308708 -0.31006,7.54476 -0.42662,1.238583 -0.54414,2.606336 1.80867,6.614583 2.72646,4.644796 2.48674,10.274744 2.48674,10.274744 0,0 0.43742,7.04421 0.43742,9.16294 0.17407,6.22578 0.40849,11.3069 -1.85415,11.37492 -4.58215,0.13775 1.61807,1.95313 6.88602,9.70109 1.12694,-3.03772 1.74127,-6.60657 3.5114,-10.47124 z"
         id="path1022"
         sodipodi:nodetypes="csscssssccscsscssssccscc" />
    </g>
  </g>
</svg>
