<?xml version="1.0" encoding="UTF-8" standalone="no"?>
<svg
   xmlns:dc="http://purl.org/dc/elements/1.1/"
   xmlns:cc="http://creativecommons.org/ns#"
   xmlns:rdf="http://www.w3.org/1999/02/22-rdf-syntax-ns#"
   xmlns:svg="http://www.w3.org/2000/svg"
   xmlns="http://www.w3.org/2000/svg"
   xmlns:sodipodi="http://sodipodi.sourceforge.net/DTD/sodipodi-0.dtd"
   xmlns:inkscape="http://www.inkscape.org/namespaces/inkscape"
   width="210mm"
   height="297mm"
   viewBox="0 0 210 297"
   version="1.1"
   id="svg8"
   inkscape:version="1.0.1 (3bc2e813f5, 2020-09-07)"
   sodipodi:docname="naranja.svg">
  <defs
     id="defs2" />
  <sodipodi:namedview
     id="base"
     pagecolor="#ffffff"
     bordercolor="#666666"
     borderopacity="1.0"
     inkscape:pageopacity="0.0"
     inkscape:pageshadow="2"
     inkscape:zoom="0.42778642"
     inkscape:cx="912.74869"
     inkscape:cy="549.62486"
     inkscape:document-units="mm"
     inkscape:current-layer="layer2"
     inkscape:document-rotation="0"
     showgrid="false"
     inkscape:window-width="1258"
     inkscape:window-height="729"
     inkscape:window-x="92"
     inkscape:window-y="0"
     inkscape:window-maximized="0" />
  <metadata
     id="metadata5">
    <rdf:RDF>
      <cc:Work
         rdf:about="">
        <dc:format>image/svg+xml</dc:format>
        <dc:type
           rdf:resource="http://purl.org/dc/dcmitype/StillImage" />
        <dc:title />
      </cc:Work>
    </rdf:RDF>
  </metadata>
  <g
     inkscape:groupmode="layer"
     id="layer2"
     inkscape:label="Dibujo Digitalizados"
     style="display:inline"
     sodipodi:insensitive="true">
    <g
       inkscape:groupmode="layer"
       id="layer7"
       inkscape:label="Hoja 2"
       style="display:inline"
       sodipodi:insensitive="true">
      <path
         style="fill:#008000;fill-opacity:1;stroke:#000000;stroke-width:1;stroke-linecap:butt;stroke-linejoin:miter;stroke-miterlimit:4;stroke-dasharray:none;stroke-opacity:1"
         d="m 78.523787,62.263109 c 0,0 28.256673,12.641851 44.334663,-0.27796 15.56578,-12.508216 24.46051,-13.342095 24.46051,-13.342095 -2.5802,1.190402 -11.82948,-0.539754 -21.87208,-5.107447 -9.57034,-4.352898 -21.43443,-4.190033 -28.299752,1.216002 -15.910822,12.528826 -18.623341,17.5115 -18.623341,17.5115 z"
         id="path43"
         sodipodi:nodetypes="cscssc" />
    </g>
    <g
       inkscape:groupmode="layer"
       id="layer6"
       inkscape:label="Hoja 1"
       style="display:inline"
       sodipodi:insensitive="true">
      <path
         style="fill:#008000;stroke:#000000;stroke-width:1;stroke-linecap:butt;stroke-linejoin:miter;stroke-miterlimit:4;stroke-dasharray:none;stroke-opacity:1"
         d="m 77.197383,56.468456 c 0,0 6.433116,-26.018378 27.019087,-25.732461 20.58597,0.285916 30.87895,-4.145786 30.87895,-4.145786 0,0 -13.15215,10.007068 -17.01201,17.440892 -3.85987,7.43382 -17.15498,22.01555 -40.886027,12.437355 z"
         id="path40" />
    </g>
    <g
       inkscape:groupmode="layer"
       id="layer10"
       inkscape:label="Linea 2"
       sodipodi:insensitive="true">
      <path
         style="fill:none;stroke:#000000;stroke-width:1;stroke-linecap:butt;stroke-linejoin:miter;stroke-miterlimit:4;stroke-dasharray:none;stroke-opacity:1"
         d="m 110.63349,53.01029 c 4.74935,-2.368767 21.78619,-3.638386 31.96181,-3.382017"
         id="path881"
         sodipodi:nodetypes="cc" />
    </g>
    <g
       inkscape:groupmode="layer"
       id="layer9"
       inkscape:label="Linea 1"
       style="display:inline"
       sodipodi:insensitive="true">
      <path
         style="fill:none;stroke:#000000;stroke-width:1;stroke-linecap:butt;stroke-linejoin:miter;stroke-miterlimit:4;stroke-dasharray:none;stroke-opacity:1"
         d="M 79.749197,57.588451 135.09542,26.590209"
         id="path872"
         sodipodi:nodetypes="cc" />
    </g>
    <g
       inkscape:groupmode="layer"
       id="layer8"
       inkscape:label="Palito xd"
       style="display:inline"
       sodipodi:insensitive="true">
      <path
         style="fill:#803300;stroke:#000000;stroke-width:1;stroke-linecap:butt;stroke-linejoin:miter;stroke-miterlimit:4;stroke-dasharray:none;stroke-opacity:1"
         d="m 77.197383,56.468456 c 0,0 -6.735061,5.837137 -14.400419,7.409519 -7.665357,1.572382 -9.04119,0.294823 -8.058454,2.555118 0.982739,2.260299 1.76893,2.555121 3.636132,10.417024 1.867201,7.861906 3.734406,20.146132 3.734406,20.146132 0,0 1.768927,9.139461 1.670653,9.532561 -0.09827,0.39309 2.260298,11.69458 2.260298,16.41172 0,4.71715 -1.375833,14.15143 -1.375833,14.15143 0,0 -1.572382,2.06375 -3.341309,2.94822 -1.76893,0.88446 16.411725,-2.2603 16.411725,-2.2603 0,0 -3.734405,-0.88447 -5.306785,-2.55512 -1.572381,-1.67065 -2.358572,-11.10494 -2.358572,-11.10494 0,0 -1.375833,-14.34798 -1.572382,-15.82208 -0.196545,-1.47411 -1.179285,-7.66536 -0.982736,-11.399765 C 67.710655,93.163571 64.565892,81.56726 64.565892,81.56726 l -1.474108,-4.913688 c 0,0 -1.474107,-4.029229 4.029226,-1.474108 5.503333,2.555118 9.434287,7.272261 9.434287,7.272261 l 8.648094,9.139465 9.532559,12.67732 5.208514,9.33601 c 0,0 2.456846,7.27226 1.375836,13.66006 -1.08102,6.3878 11.49803,-0.49137 11.49803,-0.49137 0,0 -3.63613,-1.96547 -5.50333,-4.81541 -1.8672,-2.84994 -4.61887,-9.43429 -6.78089,-13.85661 C 98.372082,103.67887 91.88601,93.458391 87.561964,88.446426 83.237916,83.434464 68.693392,72.231249 68.693392,72.231249 l -6.092976,-4.324048 c 0,0 -1.179285,-0.786191 2.06375,-1.768928 3.243035,-0.982739 10.023927,-3.83268 10.023927,-3.83268 l 6.879167,-2.162021 0.196548,-1.867204 z"
         id="path869" />
    </g>
    <g
       inkscape:groupmode="layer"
       id="layer4"
       inkscape:label="Naranja 2"
       style="display:inline"
       sodipodi:insensitive="true">
      <ellipse
         style="opacity:0.997;fill:#ff6600;stroke:#000000;stroke-width:1"
         id="path34"
         cx="112.00402"
         cy="184.98859"
         rx="59.8433"
         ry="59.641125" />
    </g>
    <g
       inkscape:groupmode="layer"
       id="layer3"
       inkscape:label="Naranja 1"
       sodipodi:insensitive="true">
      <ellipse
         style="opacity:0.997;fill:#ff6600;stroke:#000000;stroke-width:1;stroke-miterlimit:4;stroke-dasharray:none"
         id="path30"
         cx="76.017159"
         cy="197.52333"
         rx="60.200634"
         ry="59.18977" />
    </g>
  </g>
</svg>
