<?xml version="1.0" encoding="UTF-8" standalone="no"?>
<svg
   xmlns:dc="http://purl.org/dc/elements/1.1/"
   xmlns:cc="http://creativecommons.org/ns#"
   xmlns:rdf="http://www.w3.org/1999/02/22-rdf-syntax-ns#"
   xmlns:svg="http://www.w3.org/2000/svg"
   xmlns="http://www.w3.org/2000/svg"
   xmlns:sodipodi="http://sodipodi.sourceforge.net/DTD/sodipodi-0.dtd"
   xmlns:inkscape="http://www.inkscape.org/namespaces/inkscape"
   width="210mm"
   height="297mm"
   viewBox="0 0 210 297"
   version="1.1"
   id="svg8"
   sodipodi:docname="serpiente.svg"
   inkscape:version="1.0.1 (3bc2e813f5, 2020-09-07)">
  <defs
     id="defs2" />
  <sodipodi:namedview
     id="base"
     pagecolor="#ffffff"
     bordercolor="#666666"
     borderopacity="1.0"
     inkscape:pageopacity="0.0"
     inkscape:pageshadow="2"
     inkscape:zoom="0.44003075"
     inkscape:cx="219.96372"
     inkscape:cy="571.75697"
     inkscape:document-units="mm"
     inkscape:current-layer="layer2"
     inkscape:document-rotation="0"
     showgrid="false"
     inkscape:window-width="1366"
     inkscape:window-height="745"
     inkscape:window-x="-8"
     inkscape:window-y="-8"
     inkscape:window-maximized="1" />
  <metadata
     id="metadata5">
    <rdf:RDF>
      <cc:Work
         rdf:about="">
        <dc:format>image/svg+xml</dc:format>
        <dc:type
           rdf:resource="http://purl.org/dc/dcmitype/StillImage" />
        <dc:title />
      </cc:Work>
    </rdf:RDF>
  </metadata>
  <g
     inkscape:groupmode="layer"
     id="layer2"
     inkscape:label="Cuerpo"
     style="display:inline">
    <path
       style="fill:none;stroke:#000000;stroke-width:1;stroke-linecap:round;stroke-linejoin:round;stroke-miterlimit:4;stroke-dasharray:none;stroke-opacity:1"
       d="m 94.342856,108.10119 c 0,0 5.601608,-0.98274 11.301484,-5.40506 5.69988,-4.422322 10.31875,-9.925655 10.31875,-9.925655 0,0 2.75167,-3.832678 3.43959,-5.994702 0.68792,-2.162024 0.68792,-2.751667 0.68792,-2.751667"
       id="path851" />
    <path
       style="fill:#fefd89;fill-opacity:1;stroke:#000000;stroke-width:1;stroke-linecap:round;stroke-linejoin:round;stroke-miterlimit:4;stroke-dasharray:none;stroke-opacity:1"
       d="m 91.394643,106.23399 c 0,0 4.913689,2.06375 5.110237,6.28952 0.196546,4.22577 0.687917,7.17399 -1.375833,11.89113 -2.06375,4.71714 -5.110239,12.87387 -5.110239,12.87387 0,0 -5.306785,10.5153 -6.682618,12.87387 -1.375834,2.35857 -11.203215,20.2444 -12.185952,22.30815 -0.982739,2.06375 -3.930954,11.49804 -3.930954,11.49804 0,0 -3.832679,13.56178 -3.832679,18.18065 0,4.61887 1.670655,13.75834 3.832679,18.37721 2.162024,4.61887 6.19125,11.79285 8.156726,14.05315 1.965478,2.2603 8.255,6.87917 9.336013,7.46881 1.081011,0.58964 15.035892,5.60161 20.440947,6.28952 5.40506,0.68792 15.52727,1.57238 15.52727,1.57238 -18.72674,-11.90132 -24.823457,-14.93301 -28.421936,-19.61601 -2.001407,-2.6046 -4.502603,-4.47992 -7.036126,-10.9063 -1.670522,-14.7782 -0.834834,-26.62804 7.499159,-45.26607 0,0 16.600123,-26.05835 23.232843,-37.69402 5.87895,-10.31335 10.93484,-27.16575 11.88484,-34.24867 1.02373,-7.632532 -4.30887,-15.698269 -7.06054,-17.860294 -2.75167,-2.162021 -6.3878,-6.387795 -7.37054,-7.567083 -0.98273,-1.179285 -5.79815,-4.1275 -6.78089,-4.324046 -0.98274,-0.196548 -1.17928,-0.294822 -1.17928,-0.294822 0,0 0.0983,5.601607 -0.78619,6.780892 -0.88447,1.179288 1.98811,0.395541 3.43958,2.653394 1.76893,2.751666 1.95194,4.312345 1.37583,7.468809 -0.73889,4.04836 -12.239791,14.68679 -18.082377,17.19792 z"
       id="path25"
       sodipodi:nodetypes="csscsscssssscsccssssscssscc" />
    <path
       style="fill:none;stroke:#000000;stroke-width:1;stroke-linecap:round;stroke-linejoin:round;stroke-miterlimit:4;stroke-dasharray:none;stroke-opacity:1"
       d="m 96.701426,115.57 c 0,0 8.255004,1.17928 13.758334,-0.19655 5.50333,-1.37583 14.56139,-5.46262 15.93722,-6.64191"
       id="path857"
       sodipodi:nodetypes="csc" />
    <path
       style="fill:none;stroke:#000000;stroke-width:1;stroke-linecap:round;stroke-linejoin:round;stroke-miterlimit:4;stroke-dasharray:none;stroke-opacity:1"
       d="m 88.200743,141.61911 c 0,0 6.808908,3.34179 12.480767,3.43958 5.69988,0.0983 10.12221,-1.17928 11.49804,-2.35857"
       id="path857-5"
       sodipodi:nodetypes="csc" />
    <path
       style="fill:none;stroke:#000000;stroke-width:1;stroke-linecap:round;stroke-linejoin:round;stroke-miterlimit:4;stroke-dasharray:none;stroke-opacity:1"
       d="m 93.851489,128.78515 c 0,0 6.808911,3.34179 12.480771,3.43958 5.69988,0.0983 11.52189,-0.90132 12.89772,-2.08061"
       id="path857-5-1"
       sodipodi:nodetypes="csc" />
    <path
       style="fill:none;stroke:#000000;stroke-width:1;stroke-linecap:round;stroke-linejoin:round;stroke-miterlimit:4;stroke-dasharray:none;stroke-opacity:1"
       d="m 80.97762,155.51563 c 0,0 3.948151,4.78111 9.532553,5.69988 6.013808,0.98941 8.456448,0.30677 10.440867,-0.38118"
       id="path857-5-5"
       sodipodi:nodetypes="csc" />
    <path
       style="fill:none;stroke:#000000;stroke-width:1;stroke-linecap:round;stroke-linejoin:round;stroke-miterlimit:4;stroke-dasharray:none;stroke-opacity:1"
       d="m 73.164856,169.01168 c 0,0 3.948151,4.78111 9.532553,5.69988 6.013808,0.98941 8.039508,0.0983 10.023928,-0.58965"
       id="path857-5-5-5"
       sodipodi:nodetypes="csc" />
    <path
       style="fill:none;stroke:#000000;stroke-width:1;stroke-linecap:round;stroke-linejoin:round;stroke-miterlimit:4;stroke-dasharray:none;stroke-opacity:1"
       d="m 67.464975,184.53894 c 0,0 3.948151,4.78111 9.532553,5.69988 6.013808,0.98941 8.039508,0.0983 10.023927,-0.58965"
       id="path857-5-5-8"
       sodipodi:nodetypes="csc" />
    <path
       style="fill:none;stroke:#000000;stroke-width:1;stroke-linecap:round;stroke-linejoin:round;stroke-miterlimit:4;stroke-dasharray:none;stroke-opacity:1"
       d="m 64.418487,196.62663 c 0,0 3.94815,4.78111 9.532553,5.69988 6.013808,0.98941 8.525939,-0.17966 10.510358,-0.86761"
       id="path857-5-5-8-7"
       sodipodi:nodetypes="csc" />
    <path
       style="fill:none;stroke:#000000;stroke-width:1;stroke-linecap:round;stroke-linejoin:round;stroke-miterlimit:4;stroke-dasharray:none;stroke-opacity:1"
       d="m 67.152633,220.44319 c 0,0 3.900869,1.63526 9.410351,1.44847 6.091156,-0.20651 7.007282,-1.20662 8.659194,-2.50368"
       id="path857-5-5-8-5"
       sodipodi:nodetypes="csc" />
    <path
       style="fill:none;stroke:#000000;stroke-width:1;stroke-linecap:round;stroke-linejoin:round;stroke-miterlimit:4;stroke-dasharray:none;stroke-opacity:1"
       d="m 77.706522,236.72792 c 0,0 4.030891,1.28171 9.501904,0.60547 6.048626,-0.74763 6.872138,-1.82528 8.402097,-3.26417"
       id="path857-5-5-8-5-4"
       sodipodi:nodetypes="csc" />
    <path
       style="fill:none;stroke:#000000;stroke-width:1;stroke-linecap:round;stroke-linejoin:round;stroke-miterlimit:4;stroke-dasharray:none;stroke-opacity:1"
       d="m 94.121853,245.21996 c 0,0 4.5363,-0.83461 7.049677,-2.18887 2.38106,-1.28297 3.75795,-2.72618 3.75795,-2.72618"
       id="path857-5-5-8-5-4-7"
       sodipodi:nodetypes="csc" />
    <path
       style="fill:none;stroke:#000000;stroke-width:1;stroke-linecap:round;stroke-linejoin:round;stroke-miterlimit:4;stroke-dasharray:none;stroke-opacity:1"
       d="m 106.57945,248.55664 c 0,0 4.04987,-1.2863 6.56324,-2.64056"
       id="path857-5-5-8-5-4-7-9"
       sodipodi:nodetypes="cc" />
    <path
       style="fill:#fefd89;fill-opacity:1;stroke:#000000;stroke-width:1;stroke-linecap:round;stroke-linejoin:round;stroke-miterlimit:4;stroke-dasharray:none;stroke-opacity:1"
       d="m 105.60433,193.23861 c 0,0 4.01627,-0.50789 7.76873,-0.50789 3.75247,0 11.70908,1.0771 13.93276,1.56353 2.22368,0.48643 7.57442,2.57114 10.90994,4.37788 3.00644,1.62849 5.46289,3.7418 7.43544,6.53206 0.94162,1.33196 2.7796,5.21176 2.7796,5.21176 -1.5606,0.75738 -8.47779,4.09992 -8.47779,4.09992 0,0 -3.68297,-6.11513 -6.2541,-8.06085 -2.57114,-1.94572 -5.6287,-3.05757 -9.17269,-4.16941 -3.544,-1.11184 -9.1032,-1.25082 -9.1032,-1.25082 l -10.84046,-0.55592 z"
       id="path1324"
       sodipodi:nodetypes="cssssccssccc" />
    <path
       style="fill:none;stroke:#000000;stroke-width:1;stroke-linecap:round;stroke-linejoin:round;stroke-miterlimit:4;stroke-dasharray:none;stroke-opacity:1"
       d="m 109.59778,192.903 c 0.42704,1.04983 0.99858,6.78435 -0.52365,7.83348"
       id="path1326"
       sodipodi:nodetypes="cc" />
    <path
       style="fill:none;stroke:#000000;stroke-width:1;stroke-linecap:round;stroke-linejoin:round;stroke-miterlimit:4;stroke-dasharray:none;stroke-opacity:1"
       d="m 121.42294,193.41009 c 0.42704,1.04983 0.99858,6.78435 -0.52365,7.83348"
       id="path1326-5"
       sodipodi:nodetypes="cc" />
    <path
       style="fill:none;stroke:#000000;stroke-width:1;stroke-linecap:round;stroke-linejoin:round;stroke-miterlimit:4;stroke-dasharray:none;stroke-opacity:1"
       d="m 131.04822,195.96112 c 0.42704,1.04983 0.8266,7.12831 -0.69563,8.17744"
       id="path1326-5-1"
       sodipodi:nodetypes="cc" />
    <path
       style="fill:none;stroke:#000000;stroke-width:1;stroke-linecap:round;stroke-linejoin:round;stroke-miterlimit:4;stroke-dasharray:none;stroke-opacity:1"
       d="m 140.56142,200.21632 c 1.43118,1.43604 -0.76232,8.46014 -3.67599,8.9741"
       id="path1326-5-9"
       sodipodi:nodetypes="cc" />
    <path
       style="fill:#fefd89;fill-opacity:1;stroke:#000000;stroke-width:1;stroke-linecap:round;stroke-linejoin:round;stroke-miterlimit:4;stroke-dasharray:none;stroke-opacity:1"
       d="m 32.938295,184.35718 c 0,0 9.020389,9.169 14.523428,11.67433 5.041559,2.29524 11.456181,2.36266 11.743822,2.36266 0.27796,0 4.377875,-0.41694 4.377875,-0.41694 l 1.667761,-6.3236 -0.06949,-0.34745 c 0,0 -3.891443,0.62541 -5.420224,0.55592 -1.528784,-0.0695 -6.532069,-0.62541 -8.755751,-1.11184 -2.223683,-0.48643 -8.755749,-2.01521 -10.770961,-2.84909 -2.015212,-0.83388 -7.29646,-3.54399 -7.29646,-3.54399 z"
       id="path1379"
       sodipodi:nodetypes="csscccsssc" />
    <path
       style="fill:none;stroke:#000000;stroke-width:1;stroke-linecap:round;stroke-linejoin:round;stroke-miterlimit:4;stroke-dasharray:none;stroke-opacity:1"
       d="m 57.572529,191.8621 c -1.363115,1.88387 -2.003014,3.67017 -0.243216,6.28885"
       id="path1381"
       sodipodi:nodetypes="cc" />
    <path
       style="fill:none;stroke:#000000;stroke-width:1;stroke-linecap:round;stroke-linejoin:round;stroke-miterlimit:4;stroke-dasharray:none;stroke-opacity:1"
       d="m 50.248558,190.82163 c -1.363115,1.88387 -2.377502,3.39745 -0.617704,6.01613"
       id="path1381-4"
       sodipodi:nodetypes="cc" />
    <path
       style="fill:none;stroke:#000000;stroke-width:1;stroke-linecap:round;stroke-linejoin:round;stroke-miterlimit:4;stroke-dasharray:none;stroke-opacity:1"
       d="m 43.03279,188.91036 c -1.141999,1.68732 -0.706848,1.97248 -0.715978,3.80497"
       id="path1381-4-8"
       sodipodi:nodetypes="cc" />
    <path
       style="opacity:1;fill:#d7ce4d;fill-opacity:1;stroke:#000000;stroke-width:1;stroke-linecap:round;stroke-linejoin:round;stroke-miterlimit:4;stroke-dasharray:none;stroke-opacity:1;paint-order:normal"
       d="m 62.590692,139.24099 c 0,0 -12.456866,-0.25417 -21.981495,6.47546 -6.668964,4.71196 -9.652947,11.71819 -9.652947,11.71819 0,0 -2.849941,6.78089 -2.948215,11.59631 -0.09828,4.81542 3.138681,13.8037 5.028533,15.17882 3.119525,2.26987 8.068744,4.0899 9.996223,4.55318 1.927476,0.46327 7.823906,1.98651 9.838517,2.33047 2.014615,0.34396 6.584347,0.83533 7.763632,0.83533 1.179285,0 4.546751,-0.62257 4.546751,-0.62257 0,0 1.841047,-7.38675 2.332416,-8.56603 0.491368,-1.17929 2.014611,-6.33866 2.456844,-7.3214 0.442232,-0.98274 2.358572,-5.35593 3.586996,-7.37054 1.22842,-2.01461 3.930951,-7.07571 3.930951,-7.07571 l 1.081011,-2.11289 c 0,0 -1.700572,1.1118 -3.552817,1.56321 -1.852242,0.4514 -4.11254,1.13932 -6.17629,0.8445 -2.06375,-0.29482 -4.050009,-1.10214 -4.050009,-1.10214 l -5.122402,-1.92177 c 0,0 -5.313892,-2.8916 -5.195591,-6.64103 0.1183,-3.74943 1.533395,-6.16386 1.533395,-6.16386 z"
       id="path1413"
       sodipodi:nodetypes="cscssssscsssccssccscc" />
    <path
       style="fill:#d7ce4d;stroke:#000000;stroke-width:1;stroke-linecap:round;stroke-linejoin:round;stroke-miterlimit:4;stroke-dasharray:none;stroke-opacity:1;fill-opacity:1"
       d="m 88.599847,140.23097 c 0,0 -3.960934,0.90337 -9.381161,-0.13898 -5.420225,-1.04235 -14.493671,-1.56303 -16.627994,-0.851 -2.134324,0.71202 -6.584497,6.19753 -6.584497,6.19753 0,0 -2.166226,4.26266 -1.533395,6.16386 0.63283,1.9012 2.253421,5.4742 5.195591,6.64103 2.942169,1.16682 5.122402,1.92177 5.122402,1.92177 0,0 4.629793,1.39925 6.436534,1.12129 1.806742,-0.27796 3.789765,-0.86365 3.789765,-0.86365 l 3.552817,-1.56321 c 0.274989,0.27499 10.226686,-18.08444 10.029938,-18.62864 z"
       id="path51"
       sodipodi:nodetypes="csscsscsccc" />
    <path
       style="fill:#d7ce4d;fill-opacity:1;stroke:#000000;stroke-width:1;stroke-linecap:round;stroke-linejoin:round;stroke-miterlimit:4;stroke-dasharray:none;stroke-opacity:1"
       d="m 122.25262,164.80517 c 0,0 3.95724,-1.01266 7.62755,-0.87656 4.32754,0.16046 6.7564,0.892 10.23473,2.08168 0,0 4.15454,1.07903 5.72693,1.66868 1.57238,0.58964 4.32623,1.80733 7.10583,3.82254 2.59345,1.88025 5.43076,5.08784 5.43076,5.08784 0,0 3.2824,5.03589 3.96385,9.25095 0.68145,4.21506 0.19502,8.94038 -0.77784,11.23356 -1.06156,2.50225 -3.14891,4.9867 -4.11084,6.0026 -0.96194,1.01589 -3.57526,4.62384 -6.76438,6.80534 -1.8071,1.23614 -2.25841,0.53413 -2.25841,0.53413 0,0 -2.25842,-4.51685 -3.33552,-5.83716 -1.0771,-1.32032 -3.1618,-3.85671 -5.87191,-5.28125 -2.71011,-1.42455 -6.74054,-3.40501 -8.85999,-4.13466 -2.11944,-0.72965 -7.67865,-1.63302 -7.67865,-1.63302 0,0 -5.03803,-0.66015 -6.25411,-0.6949 -1.21607,-0.0347 -5.00328,-0.13898 -5.00328,-0.13898 0,0 -3.97509,0.29126 -4.89905,0.41694 -0.92396,0.12569 1.47049,-5.26874 3.18675,-8.07317 1.68675,-2.75622 3.6989,-5.20711 3.6989,-5.20711 l 3.95588,-7.33994 z"
       id="path876"
       sodipodi:nodetypes="cscsscsssscssscccssccc" />
    <path
       style="fill:#d7ce4d;stroke:#000000;stroke-width:1;stroke-linecap:round;stroke-linejoin:round;stroke-miterlimit:4;stroke-dasharray:none;stroke-opacity:1;fill-opacity:1"
       d="m 129.59899,150.23755 c 0,0 7.0185,2.22368 11.18791,2.50164 4.1694,0.27796 8.65899,0.20798 10.84045,0 2.69373,-0.25682 9.03371,-1.52879 10.77096,-1.66776 1.73725,-0.13898 6.18462,-0.76439 8.4083,-0.90337 2.22368,-0.13899 10.07606,-0.83389 12.50821,-0.27797 2.43216,0.55593 9.86759,4.16941 11.74382,7.29646 1.87624,3.12706 4.86431,9.24218 1.87624,13.41159 -2.94943,4.1155 -6.74054,5.90665 -12.50822,8.13034 -5.65914,2.18184 -6.69848,1.94792 -8.81136,2.14447 -2.11289,0.19654 -3.84605,-0.92024 -3.84605,-0.92024 0,0 -2.49261,-2.02798 -4.11413,-3.35468 -1.62152,-1.32669 -5.35592,-3.78354 -8.00932,-4.37318 -2.65339,-0.58964 -7.22312,-1.37583 -7.22312,-1.37583 0,0 -3.36588,-1.89178 -4.42232,-2.33401 -1.05645,-0.44223 -5.67633,-1.96673 -6.7809,-2.23573 -1.10456,-0.26899 -3.98009,-1.17928 -3.98009,-1.17928 0,0 -3.46415,-0.73705 -4.52059,-0.8599 -1.05644,-0.12284 -3.39045,-0.31939 -3.90639,-0.34396 -0.51593,-0.0246 -4.00465,0.22113 -5.28221,0.56508 l -1.27756,0.34395 c 0,0 4.97549,-10.03795 6.75998,-13.47788 0.29488,-0.56844 0.50263,-0.9567 0.58639,-1.08974"
       id="path878"
       sodipodi:nodetypes="cssssssssscsscsscssscsc" />
    <path
       style="fill:none;stroke:#000000;stroke-width:1;stroke-linecap:round;stroke-linejoin:round;stroke-miterlimit:4;stroke-dasharray:none;stroke-opacity:1"
       d="m 133.10344,151.23147 c 0,0 7.32983,4.33597 16.37102,4.82734 9.04119,0.49137 21.59284,1.58362 25.84601,1.08101 4.25318,-0.50261 8.20448,-2.13734 8.20448,-2.13734"
       id="path880"
       sodipodi:nodetypes="cssc" />
    <path
       style="fill:#d7ce4d;fill-opacity:1;stroke:#000000;stroke-width:1;stroke-linecap:round;stroke-linejoin:round;stroke-miterlimit:4;stroke-dasharray:none;stroke-opacity:1"
       d="m 122.511,86.028714 c 0,0 6.75843,6.846322 9.93987,12.872342 2.83519,5.370204 3.81917,13.255924 3.81917,16.244004 0,2.98807 -0.0598,9.86216 -1.04235,14.6624 -0.44829,2.19002 -2.43216,10.35402 -3.05756,12.50822 -0.62542,2.15419 -1.69509,4.03508 -1.69509,4.03508 l -1.47795,5.08694 -4.88781,9.98775 -2.8491,5.00328 -2.57113,3.82196 -4.09991,7.43544 -5.97615,9.31167 c 0,0 -3.19654,6.60155 -3.33552,8.13033 -0.13898,1.52879 -1.25879,7.76791 -1.25879,7.76791 0,0 -0.40898,4.67082 0.56388,7.10297 0.97287,2.43215 1.41227,4.75647 3.0688,5.99172 1.65653,1.23525 6.61559,3.78173 6.61559,3.78173 0,0 4.50851,1.20606 8.52201,0.58057 l 4.01351,-0.62548 c 0,0 5.83834,-1.02606 9.49444,-3.11887 l 3.6561,-2.09281 8.47779,-4.09992 2.18892,-0.0477 c 0,0 4.3213,-4.41622 6.83387,-7.29177 2.51257,-2.87555 4.11084,-5.58566 4.45829,-6.62802 0.34745,-1.04235 0.76439,-5.14226 0.76439,-6.18461 0,-1.04235 -0.20847,-4.79482 -0.83388,-6.18462 -0.62541,-1.3898 -1.73725,-4.37787 -2.01522,-4.72532 -0.27796,-0.34745 -1.44875,-2.76454 -1.44875,-2.76454 0,0 -1.70924,-2.35065 -3.83249,-4.04549 l -2.12325,-1.69484 c 0,0 8.0994,1.20841 10.39257,2.59821 2.29317,1.3898 8.954,6.50548 8.954,6.50548 0,0 3.97115,3.01466 6.4728,7.73999 2.50164,4.72532 5.5592,10.56249 6.81002,16.46915 1.25082,5.90665 -0.13898,13.13362 -0.6949,15.00985 -0.55592,1.87623 -2.63651,6.6595 -3.61348,8.19983 -2.06579,3.257 -5.31975,6.45909 -6.80509,7.92187 -1.56949,1.54564 -4.08799,3.53207 -6.24218,4.85238 -2.1542,1.32032 -5.29811,3.48643 -8.49465,4.73725 -3.19655,1.25082 -6.40501,2.97615 -12.97779,4.18626 -6.65128,1.22457 -7.3014,0.96299 -12.99958,1.17146 -5.69819,0.20847 -12.54416,-0.33046 -12.54416,-0.33046 L 101.525,237.93402 c 0,0 -6.184614,-3.96093 -8.269317,-6.46258 -2.084702,-2.50164 -5.72553,-6.81783 -6.879518,-9.45065 -1.153988,-2.63281 -1.528781,-6.60155 -1.667761,-9.17269 -0.138981,-2.57113 -0.277961,-10.84045 0.34745,-14.17597 0.625409,-3.33553 2.918582,-13.48108 4.377876,-16.88609 1.45929,-3.40501 3.960934,-8.82524 5.628695,-11.39637 1.667761,-2.57114 7.087985,-11.25739 7.087985,-11.25739 0,0 4.2389,-7.0185 5.48972,-8.75575 1.25082,-1.73726 4.53942,-7.67641 4.53942,-7.67641 0,0 4.21633,-6.91651 4.77225,-7.95886 0.55592,-1.04235 2.27818,-4.59714 2.27818,-4.59714 0,0 3.55898,-9.37037 3.83694,-9.99578 0.27797,-0.62541 2.6461,-7.76246 2.98808,-9.58963 0.34198,-1.82717 2.01521,-7.99136 2.01521,-9.93708 0,-1.945722 -0.83388,-5.837166 -1.25082,-7.087986 -0.41694,-1.250823 -3.05756,-6.254107 -4.30839,-7.50493 z"
       id="path882"
       sodipodi:nodetypes="csssscccccccscsscscscccssssscscscsssssssssccsssssscscscssssc" />
  </g>
  <g
     inkscape:groupmode="layer"
     id="layer6"
     inkscape:label="Cabeza"
     style="display:inline">
    <path
       style="fill:#d7ce4d;fill-opacity:1;stroke:#000000;stroke-width:1;stroke-linecap:round;stroke-linejoin:round;stroke-miterlimit:4;stroke-dasharray:none;stroke-opacity:1"
       d="m 105.44777,72.132975 c 0,0 -1.14317,-3.754739 -2.3245,-5.35301 -1.18133,-1.598274 -3.474499,-3.752467 -5.906652,-4.516856 -2.432154,-0.764392 -6.184617,-0.625411 -8.47779,0.90337 -2.293173,1.528783 -3.891444,3.613486 -5.281247,4.725326 -1.389801,1.11184 -0.83388,0.764391 -0.83388,0.764391 0,0 -6.393087,-1.042352 -9.86759,0.208471 -3.474506,1.25082 -3.613486,1.459291 -3.613486,1.459291 l -0.416938,0.13898 c 0,0 -0.625412,-0.903372 -2.084703,-1.876232 -1.459293,-0.972862 -3.057564,-1.806741 -4.238894,-1.598273 -1.181333,0.20847 -3.682977,1.667763 -4.308385,2.501643 -0.625412,0.833882 -1.389804,2.154192 -1.459294,3.405015 -0.06949,1.250821 -0.486428,3.335523 -0.347448,4.447363 0.13898,1.111843 0.06949,1.111843 0.06949,1.111843 0,0 -1.111843,0.555921 -1.737254,1.876231 -0.625409,1.320311 -1.459291,3.821954 -1.459291,5.420225 0,1.598274 0.06949,4.377876 0.694902,5.767676 0.625411,1.389804 2.210398,3.586049 2.898314,3.954577 0.687917,0.368527 1.130149,0.933598 1.130149,0.933598 l 4.471456,-1.277559 c 0,0 0.74226,-0.761522 1.715122,-0.900502 0.97286,-0.138981 1.876232,0.694902 1.32031,2.362663 -0.555921,1.667761 0.208471,4.238894 1.250823,5.281244 1.04235,1.04235 2.640621,2.91859 1.737252,5.6287 -0.903372,2.71011 -2.015212,4.30838 -2.362663,5.00328 -0.347451,0.6949 -2.015212,4.16941 -0.277961,4.58635 1.737252,0.41694 2.223683,0.34745 3.196543,0.27796 0.972862,-0.0695 1.389803,-0.20847 2.571133,-0.0695 1.181333,0.13898 0.416941,0 2.779604,0.27796 2.362663,0.27796 2.501643,0.48643 3.821954,0.41694 1.32031,-0.0695 1.598271,-0.0695 2.432153,-0.55592 0.833879,-0.48643 1.04235,-0.90337 1.945722,-1.59827 0.903369,-0.6949 3.821954,-5.00329 4.933794,-5.97615 1.111842,-0.97286 1.166172,-1.23448 2.571133,-2.43215 1.404964,-1.19767 1.404993,-1.19767 1.404993,-1.19767 0,0 5.405036,-2.97174 6.864326,-4.22256 1.459294,-1.25082 4.933793,-4.516852 4.933793,-4.516852 0,0 3.47451,-3.821956 4.03043,-4.377875 0.55592,-0.555921 2.91858,-3.960934 2.57113,-6.879518 -0.34745,-2.918585 -0.97286,-4.794817 -2.64062,-5.698186 -1.66776,-0.903372 -2.57114,-1.250823 -2.57114,-1.250823 0,0 -0.0695,-0.06949 0.34746,-1.11184 0.41694,-1.042353 0.51775,-6.043361 0.51775,-6.043361 z"
       id="path910"
       sodipodi:nodetypes="csssscsccssssscssssccsssssssssssssscscssscscc" />
    <path
       style="fill:none;stroke:#000000;stroke-width:1;stroke-linecap:round;stroke-linejoin:round;stroke-miterlimit:4;stroke-dasharray:none;stroke-opacity:1"
       d="m 95.227321,68.988214 c 0,0 1.572379,-0.393097 2.260296,-1.277559 0.687917,-0.884465 1.277559,-1.867204 1.179288,-4.422322"
       id="path915" />
    <path
       style="fill:none;stroke:#000000;stroke-width:1;stroke-linecap:round;stroke-linejoin:round;stroke-miterlimit:4;stroke-dasharray:none;stroke-opacity:1"
       d="m 98.792907,73.050097 c 0,0 1.525243,0.548215 2.588953,0.196042 1.06371,-0.352181 2.10044,-0.84069 3.44041,-3.018482"
       id="path915-3" />
    <path
       style="fill:none;stroke:#000000;stroke-width:1;stroke-linecap:round;stroke-linejoin:round;stroke-miterlimit:4;stroke-dasharray:none;stroke-opacity:1"
       d="m 106.43832,93.915833 -2.27186,-2.194913 c 0,0 -1.353,-1.453163 -4.203729,-1.554476"
       id="path915-3-9"
       sodipodi:nodetypes="ccc" />
    <path
       style="fill:none;stroke:#000000;stroke-width:1;stroke-linecap:round;stroke-linejoin:round;stroke-miterlimit:4;stroke-dasharray:none;stroke-opacity:1"
       d="m 98.072023,102.0157 -1.289122,-2.588001 c 0,0 -1.058179,-1.944532 -3.908909,-1.554476"
       id="path915-3-9-1"
       sodipodi:nodetypes="ccc" />
    <path
       style="fill:none;stroke:#000000;stroke-width:1;stroke-linecap:round;stroke-linejoin:round;stroke-miterlimit:4;stroke-dasharray:none;stroke-opacity:1"
       d="m 89.935321,107.20685 c 0,0 0.04283,-2.56999 -2.461151,-3.34641"
       id="path915-3-9-1-7"
       sodipodi:nodetypes="cc" />
    <path
       style="fill:none;stroke:#000000;stroke-width:1;stroke-linecap:round;stroke-linejoin:round;stroke-miterlimit:4;stroke-dasharray:none;stroke-opacity:1"
       d="m 85.069036,112.53594 c 0,0 -0.304625,-1.1107 -2.808602,-1.88712"
       id="path915-3-9-1-7-0"
       sodipodi:nodetypes="cc" />
    <path
       style="fill:none;stroke:#000000;stroke-width:1;stroke-linecap:round;stroke-linejoin:round;stroke-miterlimit:4;stroke-dasharray:none;stroke-opacity:1"
       d="m 68.725687,70.462938 c 0,0 -5.072778,3.057564 -6.462578,6.532067"
       id="path1007"
       sodipodi:nodetypes="cc" />
    <path
       style="fill:none;stroke:#000000;stroke-width:1;stroke-linecap:round;stroke-linejoin:round;stroke-miterlimit:4;stroke-dasharray:none;stroke-opacity:1"
       d="m 75.77893,68.725687 c 0,0 -6.348891,5.755754 -8.016651,11.036999"
       id="path1007-5"
       sodipodi:nodetypes="cc" />
    <path
       style="fill:none;stroke:#000000;stroke-width:1;stroke-linecap:round;stroke-linejoin:round;stroke-miterlimit:4;stroke-dasharray:none;stroke-opacity:1"
       d="m 82.623701,68.656196 c -0.08801,-0.009 -3.118855,3.013183 -3.051232,9.283714 0.01504,1.394976 -1.418266,3.463588 -1.048683,4.753281"
       id="path1007-5-8"
       sodipodi:nodetypes="csc" />
    <path
       style="fill:none;stroke:#000000;stroke-width:1;stroke-linecap:round;stroke-linejoin:round;stroke-miterlimit:4;stroke-dasharray:none;stroke-opacity:1"
       d="m 56.356453,78.454297 c 0,0 2.849092,-2.154196 5.906656,-1.459294 3.057562,0.694902 5.837166,2.918584 7.087987,5.976149 1.250822,3.057562 2.918584,5.837166 5.976146,5.837166 3.057564,0 3.613486,-0.555921 5.559208,-0.13898 1.945722,0.416941 3.383341,0.366733 4.218667,-0.321183 0.835329,-0.687917 1.474108,-1.031875 2.309434,-0.933604 0.83533,0.09828 1.62152,0.343959 2.505983,-0.29482 0.884465,-0.63878 0.786191,-0.63878 1.375833,-0.9336 0.589645,-0.294823 1.818066,-0.245685 2.456847,-0.491371 0.638778,-0.245684 1.719792,-1.179285 2.309434,-1.818063 0.589642,-0.638781 0.835327,-0.638781 1.228423,-1.523246 0.393094,-0.884463 0.540504,-1.965476 0.540504,-1.965476"
       id="path1063" />
    <path
       style="fill:none;stroke:#000000;stroke-width:1;stroke-linecap:round;stroke-linejoin:round;stroke-miterlimit:4;stroke-dasharray:none;stroke-opacity:1"
       d="m 97.831573,80.387975 c 0,0 1.719794,2.06375 3.193897,2.456847 1.47411,0.393094 0.49137,0.09827 0.49137,0.09827 l 3.06572,-3.654928"
       id="path1067" />
    <path
       style="fill:none;stroke:#000000;stroke-width:1;stroke-linecap:round;stroke-linejoin:round;stroke-miterlimit:4;stroke-dasharray:none;stroke-opacity:1"
       d="m 76.894016,94.866972 v 0 c 0,0 1.780199,-3.156697 0.50185,-5.911403"
       id="path915-3-9-1-4"
       sodipodi:nodetypes="ccc" />
    <path
       style="fill:none;stroke:#000000;stroke-width:1;stroke-linecap:round;stroke-linejoin:round;stroke-miterlimit:4;stroke-dasharray:none;stroke-opacity:1"
       d="m 87.173891,91.40213 v 0 c 0,0 1.092282,-0.503304 -0.186067,-3.25801"
       id="path915-3-9-1-4-2"
       sodipodi:nodetypes="ccc" />
    <path
       style="fill:none;stroke:#000000;stroke-width:1;stroke-linecap:round;stroke-linejoin:round;stroke-miterlimit:4;stroke-dasharray:none;stroke-opacity:1"
       d="m 94.267132,87.913409 c 0,0 1.535945,-1.454115 -0.0878,-2.275271"
       id="path915-3-9-1-4-2-3"
       sodipodi:nodetypes="cc" />
    <path
       style="fill:none;stroke:#000000;stroke-width:1;stroke-linecap:round;stroke-linejoin:round;stroke-miterlimit:4;stroke-dasharray:none;stroke-opacity:1"
       d="m 62.263109,76.995003 c 0,0 -2.905728,4.179163 -2.610908,6.832555 0.294822,2.653393 0.491371,5.405059 1.572382,6.977441 1.08101,1.572382 0.269512,2.830211 3.537857,3.439583 3.268345,0.609373 8.54982,-5.306785 8.54982,-5.306785"
       id="path1129" />
    <path
       style="fill:none;stroke:#000000;stroke-width:1;stroke-linecap:round;stroke-linejoin:round;stroke-miterlimit:4;stroke-dasharray:none;stroke-opacity:1"
       d="m 53.460951,87.46369 c 0,0 2.653392,2.35857 5.503333,2.06375 2.849941,-0.294823 4.815417,-0.589643 5.89643,-0.982739 1.081011,-0.393095 2.849941,-1.081011 3.636129,-1.867202 0.786191,-0.786191 1.277562,-1.768928 1.277562,-1.768928"
       id="path1131" />
    <path
       style="fill:none;stroke:#000000;stroke-width:1;stroke-linecap:round;stroke-linejoin:round;stroke-miterlimit:4;stroke-dasharray:none;stroke-opacity:1"
       d="m 65.737612,96.521716 c 0.833881,0.52411 1.667762,0.851302 2.501643,0.20847"
       id="path1133"
       sodipodi:nodetypes="cc" />
    <path
       style="fill:none;stroke:#000000;stroke-width:1;stroke-linecap:round;stroke-linejoin:round;stroke-miterlimit:4;stroke-dasharray:none;stroke-opacity:1"
       d="m 67.834238,103.16645 c 1.073501,0.86822 2.111448,0.0456 2.796465,-0.38117"
       id="path1133-8"
       sodipodi:nodetypes="cc" />
    <path
       style="fill:none;stroke:#000000;stroke-width:1;stroke-linecap:round;stroke-linejoin:round;stroke-miterlimit:4;stroke-dasharray:none;stroke-opacity:1"
       d="m 57.293631,71.739881 c 0,0 2.21116,1.768927 3.341309,1.867201 1.130149,0.09828 1.474108,-0.09827 2.407708,0.09828 0.933601,0.196548 1.768928,0.442232 2.35857,0.638778 0.589645,0.196548 1.375834,0.343958 1.91634,0.540507 0.540507,0.196548 0.933601,1.081013 2.260299,1.179284 1.326695,0.09828 0.393094,-0.147409 2.751666,0.393097 2.35857,0.540507 2.456844,1.719792 3.832678,1.768928 1.375833,0.04914 2.555121,0.09827 2.99735,-0.393094"
       id="path1150" />
    <path
       style="fill:none;stroke:#000000;stroke-width:1;stroke-linecap:round;stroke-linejoin:round;stroke-miterlimit:4;stroke-dasharray:none;stroke-opacity:1"
       d="m 80.191548,73.867951 c 0,0 3.127052,-1.667761 5.559205,0.833882"
       id="path1152" />
    <path
       style="fill:none;stroke:#000000;stroke-width:1;stroke-linecap:round;stroke-linejoin:round;stroke-miterlimit:4;stroke-dasharray:none;stroke-opacity:1"
       d="m 69.774405,84.908569 c 0,0 2.59951,-0.339146 3.746095,-0.339146 1.146588,0 0.868627,0.243216 2.084702,-0.243215 1.216078,-0.486431 1.910977,-1.146585 2.084703,-1.18133 0.173725,-0.03475 0.590666,-0.555922 1.876232,-0.138981 1.285568,0.416939 1.042352,0.451684 2.119447,0.451684 1.077098,0 2.293173,-0.104236 3.09231,-0.555919 0.799134,-0.451686 0.833879,-2.362663 0.833879,-2.362663"
       id="path1156"
       sodipodi:nodetypes="cssssssc" />
    <path
       style="fill:none;stroke:#000000;stroke-width:1;stroke-linecap:round;stroke-linejoin:round;stroke-miterlimit:4;stroke-dasharray:none;stroke-opacity:1"
       d="m 79.967658,88.361379 v 0 c 0,0 -0.165523,-2.913482 -1.443872,-5.668188"
       id="path915-3-9-1-4-5"
       sodipodi:nodetypes="ccc" />
    <path
       style="fill:none;stroke:#000000;stroke-width:1;stroke-linecap:round;stroke-linejoin:round;stroke-miterlimit:4;stroke-dasharray:none;stroke-opacity:1"
       d="m 86.987824,88.14412 v 0 c 0,0 -0.565029,-0.507785 -0.944872,-1.468139 -0.372858,-0.942692 -0.554616,-2.325259 -1.187858,-3.689829"
       id="path915-3-9-1-4-5-6"
       sodipodi:nodetypes="ccsc" />
    <path
       style="fill:none;stroke:#000000;stroke-width:1;stroke-linecap:round;stroke-linejoin:round;stroke-miterlimit:4;stroke-dasharray:none;stroke-opacity:1"
       d="m 94.179332,85.638138 v 0 c 0.04439,-0.334492 -1.719786,0.331296 -2.052977,0.07688 -0.346386,-0.264495 0.47077,-2.659015 -1.222603,-3.967789"
       id="path915-3-9-1-4-5-6-9"
       sodipodi:nodetypes="ccsc" />
  </g>
  <g
     inkscape:groupmode="layer"
     id="layer5"
     inkscape:label="Ojos">
    <path
       style="fill:#ffffff;stroke:#000000;stroke-width:1;stroke-linecap:round;stroke-linejoin:round;stroke-miterlimit:4;stroke-dasharray:none;stroke-opacity:1"
       d="m 85.611773,80.538999 c 0,0 -0.764389,-3.127055 0.555921,-6.045637 1.320311,-2.918584 3.613484,-4.725326 3.613484,-4.725326 0,0 3.752466,-2.015212 6.184617,0.06949 2.432153,2.084702 4.030424,5.976146 4.030424,5.976146 0,0 -0.833879,4.238895 -4.099915,5.142267 -3.266032,0.903369 -7.157476,0.555919 -8.408299,0.277958 -1.25082,-0.277958 -1.876232,-0.694899 -1.876232,-0.694898 z"
       id="path905" />
    <path
       style="fill:none;stroke:#000000;stroke-width:1;stroke-linecap:round;stroke-linejoin:round;stroke-miterlimit:4;stroke-dasharray:none;stroke-opacity:1"
       d="m 90.75404,72.26968 c 0.866665,1.339626 2.283064,2.487156 2.293174,4.169404 l -10e-7,3.335523"
       id="path907"
       sodipodi:nodetypes="ccc" />
  </g>
  <g
     inkscape:groupmode="layer"
     id="layer7"
     inkscape:label="Boca">
    <path
       style="fill:#aa0000;stroke:#000000;stroke-width:1;stroke-linecap:round;stroke-linejoin:round;stroke-opacity:1;stroke-miterlimit:4;stroke-dasharray:none"
       d="m 68.030785,94.853955 c 0,0 3.154688,1.880658 6.511139,0.801348 3.356451,-1.079309 7.108915,-2.260639 7.108915,-2.260639 0,0 6.879518,-2.432153 8.54728,-3.196545 1.667761,-0.764389 3.474503,-1.945722 4.377875,-2.432153 0.903372,-0.486429 2.432153,-1.389801 3.335523,-2.015213 0.903372,-0.625408 2.501643,-1.806741 2.988073,-2.293172 0.48643,-0.486429 1.66776,-0.555919 1.45929,0.694901 -0.20847,1.250821 -1.25082,4.030425 -2.22368,5.420225 -0.97286,1.389804 -3.266033,4.377875 -3.752464,4.794816 -0.486432,0.416941 -5.837166,5.559206 -6.115127,5.976147 -0.277961,0.41694 -3.983204,4.02311 -4.916808,5.05499 -0.9336,1.03187 -4.078361,5.60161 -4.569729,6.43694 -0.491371,0.83532 -0.540507,2.30943 -2.751667,2.70252 -2.211163,0.3931 -6.240388,0.19655 -7.075715,-0.29482 -0.835327,-0.49137 -1.424972,-1.03187 -1.277559,-2.35857 0.14741,-1.3267 0.09827,-2.35857 0.933601,-3.53786 0.835326,-1.17928 0.78619,-3.39044 0.638778,-4.07836 -0.14741,-0.68791 -1.474105,-5.257647 -2.06375,-6.33866 -0.589643,-1.081011 -1.153975,-3.075895 -1.153975,-3.075895 z"
       id="path913" />
    <path
       style="fill:none;stroke:#000000;stroke-width:1;stroke-linecap:round;stroke-linejoin:round;stroke-miterlimit:4;stroke-dasharray:none;stroke-opacity:1"
       d="m 84.683239,92.284043 c 0,0 -4.49181,5.203577 2.583902,10.510357"
       id="path1218"
       sodipodi:nodetypes="cc" />
    <path
       style="fill:#ff0000;stroke:#000000;stroke-width:1;stroke-linecap:round;stroke-linejoin:round;stroke-opacity:1;stroke-miterlimit:4;stroke-dasharray:none"
       d="m 71.296817,107.01472 c 0,0 2.293173,-1.80674 3.891444,-1.59827 1.598274,0.20847 2.223683,0.27796 3.752467,-0.48643 1.528781,-0.7644 5.211754,-1.87624 6.045636,-1.80675 0.83388,0.0695 2.280775,-0.32887 2.280775,-0.32887 0,0 -2.002814,2.62205 -3.392617,4.70675 -1.389801,2.0847 -3.127053,4.30838 -3.613484,5.35073 -0.486431,1.04236 -1.18133,1.52878 -2.154192,1.80675 -0.972863,0.27796 -5.976147,0.13898 -6.671048,-0.13898 -0.694899,-0.27797 -2.501643,-1.25083 -1.667762,-3.82196 0.833882,-2.57113 1.528781,-3.68297 1.528781,-3.68297 z"
       id="path1220" />
    <path
       style="fill:#ff0000;stroke:#000000;stroke-width:1;stroke-linecap:round;stroke-linejoin:round;stroke-miterlimit:4;stroke-dasharray:none;stroke-opacity:1"
       d="m 79.496646,106.73676 c 0,0 -8.130338,6.32359 -9.381159,9.7981 -1.274076,3.53911 -0.833881,2.7796 -1.389803,7.0185 -0.58007,4.42304 -1.320311,10.77096 -2.223681,12.16076 -0.723529,1.11312 -1.181332,1.45929 -1.181332,1.45929 0,0 4.864306,-4.79481 5.350738,-5.28124 0.486428,-0.48644 0.833879,5.97614 0.555918,6.87951 -0.27796,0.90337 -0.27796,0.83388 -0.27796,0.83388 0,0 1.528783,-1.59827 2.223682,-2.98807 0.694902,-1.3898 1.250823,-5.21176 0.833882,-7.50493 -0.416941,-2.29317 -1.806741,-5.97614 -1.459291,-7.99136 0.347451,-2.01521 2.362663,-6.18461 2.362663,-6.18461 l 2.362661,-3.26604"
       id="path1222"
       sodipodi:nodetypes="cssscsscssscc" />
  </g>
  <g
     inkscape:groupmode="layer"
     id="layer4"
     inkscape:label="Colmillos"
     style="display:inline">
    <path
       style="fill:#ffffff;stroke:#000000;stroke-width:1;stroke-linecap:round;stroke-linejoin:round;stroke-miterlimit:4;stroke-dasharray:none;stroke-opacity:1"
       d="m 57.883273,96.406606 4.471457,-1.27756 c 0,0 -0.646985,8.009314 0.34396,9.237734 h -0.09827 c 0,0 -4.324048,-2.84994 -4.717143,-7.960174 z"
       id="path885"
       sodipodi:nodetypes="ccccsc" />
    <path
       style="fill:#ffffff;stroke:#000000;stroke-width:1;stroke-linecap:round;stroke-linejoin:round;stroke-miterlimit:4;stroke-dasharray:none;stroke-opacity:1"
       d="m 70.904348,96.098983 3.637577,-0.443679 c -0.121904,3.707261 0.356565,6.501706 1.079571,8.403856 0,0 -4.324049,-2.84994 -4.717144,-7.960177 z"
       id="path885-5"
       sodipodi:nodetypes="cccsc" />
  </g>
  <g
     inkscape:groupmode="layer"
     id="layer3"
     inkscape:label="Triángulos">
    <path
       style="fill:#344603;fill-opacity:1;stroke:#000000;stroke-width:1;stroke-linecap:round;stroke-linejoin:round;stroke-miterlimit:4;stroke-dasharray:none;stroke-opacity:1"
       d="m 124.2181,117.04411 c 0,0 10.7287,-8.61727 11.31834,-9.40346 0.78286,1.62949 0.91482,11.4219 0.67106,12.94131 0,0 -1.96548,-1.4741 -11.9894,-3.53785 z"
       id="path1037"
       sodipodi:nodetypes="cccc" />
    <path
       style="fill:#344603;fill-opacity:1;stroke:#000000;stroke-width:1;stroke-linecap:round;stroke-linejoin:round;stroke-miterlimit:4;stroke-dasharray:none;stroke-opacity:1"
       d="m 120.67959,133.50843 c 0,0 13.22622,-1.15019 14.14366,-1.50243 -0.20355,1.79629 -3.33378,13.18763 -4.34821,14.34476 0,0 -2.40387,-5.76401 -9.79545,-12.84233 z"
       id="path1037-3"
       sodipodi:nodetypes="cccc" />
    <path
       style="fill:#212c02;fill-opacity:1;stroke:#000000;stroke-width:1;stroke-linecap:round;stroke-linejoin:round;stroke-miterlimit:4;stroke-dasharray:none;stroke-opacity:1"
       d="m 112.10176,150.67984 c 1.64962,0.35476 14.54954,2.69361 16.89533,0.75786 -0.89845,2.26535 -4.8377,10.10044 -5.85213,11.25757 0,0 -3.65162,-4.93711 -11.0432,-12.01543 z"
       id="path1037-3-5"
       sodipodi:nodetypes="cccc" />
    <path
       style="fill:#344603;fill-opacity:1;stroke:#000000;stroke-width:1;stroke-linecap:round;stroke-linejoin:round;stroke-miterlimit:4;stroke-dasharray:none;stroke-opacity:1"
       d="m 96.41052,176.12241 c 1.73223,1.30528 7.79835,0.11999 13.2803,-0.8234 2.77994,-0.4784 7.49323,-2.07726 7.64425,-2.84106 -0.27304,1.79629 -6.67509,11.32043 -7.68952,12.47756 0,0 -4.95899,-2.22615 -13.23503,-8.8131 z"
       id="path1037-3-5-5"
       sodipodi:nodetypes="csccc" />
    <path
       style="fill:#344603;fill-opacity:1;stroke:#000000;stroke-width:1;stroke-linecap:round;stroke-linejoin:round;stroke-miterlimit:4;stroke-dasharray:none;stroke-opacity:1"
       d="m 90.366715,201.34328 c -0.284907,-0.0573 12.652305,-5.87559 15.237615,-8.10467 -0.20355,1.79629 -1.4051,8.08336 -1.58565,9.65743 0,0 -4.098365,-0.76396 -13.651965,-1.55276 z"
       id="path1037-3-5-5-6"
       sodipodi:nodetypes="cccc" />
    <path
       style="fill:#344603;fill-opacity:1;stroke:#000000;stroke-width:1;stroke-linecap:round;stroke-linejoin:round;stroke-miterlimit:4;stroke-dasharray:none;stroke-opacity:1"
       d="m 100.40609,230.32902 c -0.2534,0.14228 6.7379,-10.96261 7.24527,-14.33829 1.50799,1.49485 4.76333,2.93087 6.61559,3.78173 0,0 -6.10201,4.92685 -13.86086,10.55656 z"
       id="path1037-3-5-5-6-3"
       sodipodi:nodetypes="cccc" />
    <path
       style="fill:#344603;fill-opacity:1;stroke:#000000;stroke-width:1;stroke-linecap:round;stroke-linejoin:round;stroke-miterlimit:4;stroke-dasharray:none;stroke-opacity:1"
       d="m 138.14002,238.06058 c 0.78443,0.20483 -7.25272,-16.03984 -11.33755,-18.33303 2.10492,-0.27917 7.68858,-2.1735 9.49444,-3.11887 0.93012,0 3.03701,11.87018 1.84311,21.4519 z"
       id="path1037-3-5-5-6-3-3"
       sodipodi:nodetypes="cccc" />
    <path
       style="fill:#344603;fill-opacity:1;stroke:#000000;stroke-width:1;stroke-linecap:round;stroke-linejoin:round;stroke-miterlimit:4;stroke-dasharray:none;stroke-opacity:1"
       d="m 172.50785,221.79989 c -1.76536,-2.413 -13.12848,-11.92159 -21.88813,-11.43166 1.71288,-1.25486 5.70302,-5.59589 6.83387,-7.29177 0.81607,-0.44627 11.11148,9.05585 15.05426,18.72343 z"
       id="path1037-3-5-5-6-3-3-2"
       sodipodi:nodetypes="cccc" />
    <path
       style="fill:#344603;fill-opacity:1;stroke:#000000;stroke-width:1;stroke-linecap:round;stroke-linejoin:round;stroke-miterlimit:4;stroke-dasharray:none;stroke-opacity:1"
       d="m 174.03272,190.50294 c 0,0 -6.1121,-8.27608 -11.69045,-4.66264 -0.20486,-2.11345 -3.08267,-7.41292 -3.96385,-9.25095 0.0327,-0.92954 13.52822,3.0582 15.6543,13.91359 z"
       id="path1037-3-5-5-6-3-3-2-7"
       sodipodi:nodetypes="cccc" />
    <path
       style="fill:#344603;fill-opacity:1;stroke:#000000;stroke-width:1.14758;stroke-linecap:round;stroke-linejoin:round;stroke-miterlimit:4;stroke-dasharray:none;stroke-opacity:1"
       d="m 147.33819,194.74787 c 2.25603,-2.60185 8.70548,-9.98824 15.00408,-8.90757 -0.21872,-1.64899 -2.77808,-6.74433 -3.96385,-9.25095 -0.0435,-0.91977 -8.21055,7.22073 -11.04023,18.15852 z"
       id="path1037-3-5-5-6-3-3-2-7-1"
       sodipodi:nodetypes="cccc" />
    <path
       style="fill:#344603;fill-opacity:1;stroke:#000000;stroke-width:1.14758;stroke-linecap:round;stroke-linejoin:round;stroke-miterlimit:4;stroke-dasharray:none;stroke-opacity:1"
       d="m 126.56112,182.99725 c 0.9513,-3.30973 6.4027,-15.36522 12.57104,-17.0361 -2.44585,-1.24817 -3.93525,-1.34875 -8.94874,-1.9283 -0.4266,-0.81601 -5.65933,7.85166 -3.6223,18.9644 z"
       id="path1037-3-5-5-6-3-3-2-7-1-0"
       sodipodi:nodetypes="cccc" />
    <path
       style="fill:#344603;fill-opacity:1;stroke:#000000;stroke-width:1.14758;stroke-linecap:round;stroke-linejoin:round;stroke-miterlimit:4;stroke-dasharray:none;stroke-opacity:1"
       d="m 142.14611,163.79888 c 1.93404,-5.27521 0.80109,-2.09826 2.64539,-8.19146 0,0 0,0 -4.13333,-0.35592 0.26132,1.44429 -0.54909,-2.56536 1.48794,8.54738 z"
       id="path1037-3-5-5-6-3-3-2-7-1-0-4"
       sodipodi:nodetypes="cccc" />
    <path
       style="fill:#344603;fill-opacity:1;stroke:#000000;stroke-width:1.14758;stroke-linecap:round;stroke-linejoin:round;stroke-miterlimit:4;stroke-dasharray:none;stroke-opacity:1"
       d="m 166.28425,170.29051 c 2.64524,-5.41198 2.67264,-6.85615 2.21015,-12.57657 l -6.88602,-0.37627 c 0.26132,1.44429 2.63884,1.8401 4.67587,12.95284 z"
       id="path1037-3-5-5-6-3-3-2-7-1-0-4-0"
       sodipodi:nodetypes="cccc" />
    <path
       style="fill:#344603;fill-opacity:1;stroke:#000000;stroke-width:1.14758;stroke-linecap:round;stroke-linejoin:round;stroke-miterlimit:4;stroke-dasharray:none;stroke-opacity:1"
       d="m 187.80835,166.64514 c 0.50751,-2.18361 0.32288,-4.06902 0.14498,-4.82356 l -0.59477,-2.29248 c -1.01994,-2.3937 -1.81156,-2.94503 -3.83361,-4.52662 l -3.9513,1.63473 c 0.15594,1.53747 3.11506,2.05252 7.93985,10.69585 z"
       id="path1037-3-5-5-6-3-3-2-7-1-0-4-0-5"
       sodipodi:nodetypes="ccccccc" />
    <path
       style="fill:#344603;fill-opacity:1;stroke:#000000;stroke-width:1;stroke-linecap:round;stroke-linejoin:round;stroke-miterlimit:4;stroke-dasharray:none;stroke-opacity:1"
       d="m 61.168494,179.12958 c 1.926083,-2.2131 8.799895,-15.77629 13.8486,-18.70676 -2.937219,0.6505 -5.21281,1.85632 -10.2263,-0.25764 -0.4266,-0.81601 -5.65933,7.85166 -3.6223,18.9644 z"
       id="path1037-3-5-5-6-3-3-2-7-1-0-0"
       sodipodi:nodetypes="cccc" />
    <path
       style="fill:#344603;fill-opacity:1;stroke:#000000;stroke-width:1;stroke-linecap:round;stroke-linejoin:round;stroke-miterlimit:4;stroke-dasharray:none;stroke-opacity:1"
       d="m 39.313325,165.41419 c 2.279377,-1.5548 12.154318,-9.93394 20.355066,-7.17078 -2.301875,-2.05174 -3.727275,-1.81865 -5.195591,-6.64103 0.121119,-0.91279 -10.425714,3.55344 -15.159475,13.81181 z"
       id="path1037-3-5-5-6-3-3-2-7-1-0-0-5"
       sodipodi:nodetypes="cccc" />
    <path
       style="fill:#344603;fill-opacity:1;stroke:#000000;stroke-width:1;stroke-linecap:round;stroke-linejoin:round;stroke-miterlimit:4;stroke-dasharray:none;stroke-opacity:1"
       d="m 40.609197,145.71645 c 2.72035,-0.46115 5.462671,-2.96954 15.396998,-0.27793 1.713162,-2.33404 2.564056,-2.97145 6.584497,-6.19753 0,0 -13.397148,-0.86972 -21.981495,6.47546 z"
       id="path1037-3-5-5-6-3-3-2-7-1-0-0-5-4"
       sodipodi:nodetypes="cccc" />
    <path
       style="fill:#344603;fill-opacity:1;stroke:#000000;stroke-width:1;stroke-linecap:round;stroke-linejoin:round;stroke-miterlimit:4;stroke-dasharray:none;stroke-opacity:1"
       d="m 62.691789,156.68368 c 0.315406,-2.73885 0.629098,-6.43384 -6.685594,-11.24516 2.087987,-2.39653 2.185105,-2.39384 6.584497,-6.19753 -0.713941,-0.14699 5.598402,9.90411 0.101097,17.44269 z"
       id="path1037-3-5-5-6-3-3-2-7-1-0-0-5-4-5"
       sodipodi:nodetypes="cccc" />
  </g>
</svg>
